{
  "source": "C:\\Users\\Peter\\Desktop\\stuff\\MIUN\\quantitative_research\\video_compression\\videos\\BVI-HD\\BVI-HD_CDVL_videos\\ORIG\\Bookcase_1920x1080_60fps.mp4",
  "output": "C:\\Users\\Peter\\Desktop\\stuff\\MIUN\\quantitative_research\\video_compression\\compressed_videos\\BVI-HD\\hevc\\2.5\\Bookcase_1920x1080_60fps_hevc.mp4",
  "codec": "hevc",
  "ok": "Input #0, mov,mp4,m4a,3gp,3g2,mj2, from 'C:\\Users\\Peter\\Desktop\\stuff\\MIUN\\quantitative_research\\video_compression\\videos\\BVI-HD\\BVI-HD_CDVL_videos\\ORIG\\Bookcase_1920x1080_60fps.mp4':\n  Metadata:\n    major_brand     : isom\n    minor_version   : 512\n    compatible_brands: isomiso2avc1mp41\n    encoder         : Lavf54.28.101\n  Duration: 00:00:05.00, start: 0.000000, bitrate: 336321 kb/s\n  Stream #0:0[0x1](und): Video: h264 (High 4:4:4 Predictive) (avc1 / 0x31637661), yuv420p(progressive), 1920x1080, 336316 kb/s, 60 fps, 60 tbr, 60 tbn (default)\n    Metadata:\n      handler_name    : VideoHandler\n      vendor_id       : [0][0][0][0]\n[out#0/mp4 @ 000002b557d4f040] Codec AVOption b:a (set bitrate (in bits/s)) has not been used for any stream. The most likely reason is either wrong type (e.g. a video option with no video streams) or that it is a private option of some decoder which was not actually used for any stream.\nStream mapping:\n  Stream #0:0 -> #0:0 (h264 (native) -> hevc (libx265))\nPress [q] to stop, [?] for help\n[libx265 @ 000002b55744a940] Unknown option: \"aq-mode.\nx265 [info]: HEVC encoder version 4.1+190-8f11c33ac\nx265 [info]: build info [Windows][GCC 15.1.0][64 bit] 10bit\nx265 [info]: using cpu capabilities: MMX2 SSE2Fast LZCNT SSSE3 SSE4.2 AVX FMA3 BMI2 AVX2\nx265 [info]: Main 10 profile, Level-4.1 (Main tier)\nx265 [info]: Thread pool created using 12 threads\nx265 [info]: Slices                              : 1\nx265 [info]: frame threads / pool features       : 3 / wpp(17 rows)\nx265 [info]: Coding QT: max CU size, min CU size : 64 / 8\nx265 [info]: Residual QT: max TU size, max depth : 32 / 1 inter / 1 intra\nx265 [info]: ME / range / subpel / merge         : star / 57 / 3 / 3\nx265 [info]: Keyframe min / max / scenecut / bias  : 25 / 250 / 40 / 5.00 \nx265 [info]: Lookahead / bframes / badapt        : 25 / 4 / 2\nx265 [info]: b-pyramid / weightp / weightb       : 1 / 1 / 0\nx265 [info]: References / ref-limit  cu / depth  : 4 / on / on\nx265 [info]: AQ: mode / str / qg-size / cu-tree  : 2 / 1.0 / 32 / 1\nx265 [info]: Rate Control / qCompress            : ABR-2500 kbps / 0.60\nx265 [info]: VBV/HRD buffer / max-rate / init    : 2500 / 2500 / 0.750\nx265 [info]: tools: rect limit-modes rd=4 psy-rd=2.00 rdoq=2 psy-rdoq=1.00\nx265 [info]: tools: rskip mode=1 signhide tmvp strong-intra-smoothing lslices=4\nx265 [info]: tools: deblock sao dhdr10-info\nOutput #0, mp4, to 'C:\\Users\\Peter\\Desktop\\stuff\\MIUN\\quantitative_research\\video_compression\\compressed_videos\\BVI-HD\\hevc\\2.5\\Bookcase_1920x1080_60fps_hevc.mp4':\n  Metadata:\n    major_brand     : isom\n    minor_version   : 512\n    compatible_brands: isomiso2avc1mp41\n    encoder         : Lavf62.3.100\n  Stream #0:0(und): Video: hevc (hev1 / 0x31766568), yuv420p10le(tv, progressive), 1920x1080, q=2-31, 2500 kb/s, 60 fps, 15360 tbn (default)\n    Metadata:\n      encoder         : Lavc62.11.100 libx265\n      handler_name    : VideoHandler\n      vendor_id       : [0][0][0][0]\n    Side data:\n      cpb: bitrate max/min/avg: 2500000/0/2500000 buffer size: 2500000 vbv_delay: N/A\nframe=    0 fps=0.0 q=0.0 size=       0KiB time=N/A bitrate=N/A speed=N/A elapsed=0:00:01.08    \nframe=    0 fps=0.0 q=0.0 size=       0KiB time=N/A bitrate=N/A speed=N/A elapsed=0:00:01.64    \nframe=    0 fps=0.0 q=0.0 size=       0KiB time=N/A bitrate=N/A speed=N/A elapsed=0:00:02.20    \nframe=    0 fps=0.0 q=0.0 size=       0KiB time=N/A bitrate=N/A speed=N/A elapsed=0:00:02.73    \nframe=    0 fps=0.0 q=0.0 size=       0KiB time=N/A bitrate=N/A speed=N/A elapsed=0:00:03.29    \nframe=    0 fps=0.0 q=0.0 size=       0KiB time=N/A bitrate=N/A speed=N/A elapsed=0:00:03.82    \nframe=    0 fps=0.0 q=0.0 size=       0KiB time=N/A bitrate=N/A speed=N/A elapsed=0:00:04.34    \nframe=    0 fps=0.0 q=0.0 size=       0KiB time=N/A bitrate=N/A speed=N/A elapsed=0:00:04.87    \nframe=    0 fps=0.0 q=0.0 size=       0KiB time=N/A bitrate=N/A speed=N/A elapsed=0:00:05.40    \nframe=    0 fps=0.0 q=0.0 size=       0KiB time=N/A bitrate=N/A speed=N/A elapsed=0:00:05.96    \nframe=    0 fps=0.0 q=0.0 size=       0KiB time=N/A bitrate=N/A speed=N/A elapsed=0:00:06.50    \nframe=    0 fps=0.0 q=0.0 size=       0KiB time=N/A bitrate=N/A speed=N/A elapsed=0:00:07.02    \nframe=    0 fps=0.0 q=0.0 size=       0KiB time=N/A bitrate=N/A speed=N/A elapsed=0:00:07.53    \nframe=    0 fps=0.0 q=0.0 size=       0KiB time=N/A bitrate=N/A speed=N/A elapsed=0:00:08.07    \nframe=    0 fps=0.0 q=0.0 size=       0KiB time=N/A bitrate=N/A speed=N/A elapsed=0:00:08.62    \nframe=    0 fps=0.0 q=0.0 size=       0KiB time=N/A bitrate=N/A speed=N/A elapsed=0:00:09.14    \nframe=    0 fps=0.0 q=0.0 size=       0KiB time=N/A bitrate=N/A speed=N/A elapsed=0:00:09.67    \nframe=    0 fps=0.0 q=0.0 size=       0KiB time=N/A bitrate=N/A speed=N/A elapsed=0:00:10.18    \nframe=    0 fps=0.0 q=0.0 size=       0KiB time=N/A bitrate=N/A speed=N/A elapsed=0:00:10.70    \nframe=    1 fps=0.1 q=36.4 size=       0KiB time=-00:00:00.01 bitrate=N/A speed=N/A elapsed=0:00:11.21    \nframe=    2 fps=0.2 q=38.4 size=       0KiB time=00:00:00.00 bitrate=N/A speed=   0x elapsed=0:00:11.73    \nframe=    3 fps=0.2 q=45.0 size=       0KiB time=00:00:00.01 bitrate=  21.1kbits/s speed=0.00136x elapsed=0:00:12.25    \nframe=    3 fps=0.2 q=45.0 size=       0KiB time=00:00:00.01 bitrate=  21.1kbits/s speed=0.0013x elapsed=0:00:12.79    \nframe=    3 fps=0.2 q=45.0 size=       0KiB time=00:00:00.01 bitrate=  21.1kbits/s speed=0.00125x elapsed=0:00:13.33    \nframe=    3 fps=0.2 q=45.0 size=       0KiB time=00:00:00.01 bitrate=  21.1kbits/s speed=0.0012x elapsed=0:00:13.85    \nframe=    3 fps=0.2 q=45.0 size=       0KiB time=00:00:00.01 bitrate=  21.1kbits/s speed=0.00116x elapsed=0:00:14.37    \nframe=    4 fps=0.3 q=46.0 size=       0KiB time=00:00:00.03 bitrate=  10.6kbits/s speed=0.00224x elapsed=0:00:14.90    \nframe=    4 fps=0.3 q=46.0 size=       0KiB time=00:00:00.03 bitrate=  10.6kbits/s speed=0.00216x elapsed=0:00:15.41    \nframe=    5 fps=0.3 q=43.0 size=       0KiB time=00:00:00.05 bitrate=   7.0kbits/s speed=0.00314x elapsed=0:00:15.92    \nframe=    5 fps=0.3 q=43.0 size=       0KiB time=00:00:00.05 bitrate=   7.0kbits/s speed=0.00304x elapsed=0:00:16.44    \nframe=    6 fps=0.4 q=36.6 size=       0KiB time=00:00:00.06 bitrate=   5.3kbits/s speed=0.00393x elapsed=0:00:16.96    \nframe=    7 fps=0.4 q=38.8 size=       0KiB time=00:00:00.08 bitrate=   4.2kbits/s speed=0.00476x elapsed=0:00:17.49    \nframe=    7 fps=0.4 q=38.8 size=       0KiB time=00:00:00.08 bitrate=   4.2kbits/s speed=0.00462x elapsed=0:00:18.04    \nframe=    7 fps=0.4 q=38.8 size=       0KiB time=00:00:00.08 bitrate=   4.2kbits/s speed=0.00449x elapsed=0:00:18.55    \nframe=    8 fps=0.4 q=37.1 size=       0KiB time=00:00:00.10 bitrate=   3.5kbits/s speed=0.00524x elapsed=0:00:19.06    \nframe=    8 fps=0.4 q=37.1 size=       0KiB time=00:00:00.10 bitrate=   3.5kbits/s speed=0.00511x elapsed=0:00:19.58    \nframe=    8 fps=0.4 q=37.1 size=       0KiB time=00:00:00.10 bitrate=   3.5kbits/s speed=0.00498x elapsed=0:00:20.09    \nframe=    8 fps=0.4 q=37.1 size=       0KiB time=00:00:00.10 bitrate=   3.5kbits/s speed=0.00485x elapsed=0:00:20.61    \nframe=    9 fps=0.4 q=36.7 size=       0KiB time=00:00:00.11 bitrate=   3.0kbits/s speed=0.00552x elapsed=0:00:21.13    \nframe=   10 fps=0.5 q=36.1 size=       0KiB time=00:00:00.13 bitrate=   2.6kbits/s speed=0.00615x elapsed=0:00:21.66    \nframe=   10 fps=0.5 q=36.1 size=       0KiB time=00:00:00.13 bitrate=   2.6kbits/s speed=0.00601x elapsed=0:00:22.17    \nframe=   11 fps=0.5 q=32.7 size=       0KiB time=00:00:00.15 bitrate=   2.3kbits/s speed=0.00661x elapsed=0:00:22.68    \nframe=   12 fps=0.5 q=37.7 size=       0KiB time=00:00:00.16 bitrate=   2.1kbits/s speed=0.00718x elapsed=0:00:23.20    \nframe=   13 fps=0.5 q=37.4 size=       0KiB time=00:00:00.18 bitrate=   1.9kbits/s speed=0.00773x elapsed=0:00:23.72    \nframe=   13 fps=0.5 q=37.4 size=       0KiB time=00:00:00.18 bitrate=   1.9kbits/s speed=0.00757x elapsed=0:00:24.23    \nframe=   13 fps=0.5 q=37.4 size=       0KiB time=00:00:00.18 bitrate=   1.9kbits/s speed=0.0074x elapsed=0:00:24.77    \nframe=   13 fps=0.5 q=37.4 size=       0KiB time=00:00:00.18 bitrate=   1.9kbits/s speed=0.00724x elapsed=0:00:25.30    \nframe=   13 fps=0.5 q=37.4 size=       0KiB time=00:00:00.18 bitrate=   1.9kbits/s speed=0.00709x elapsed=0:00:25.85    \nframe=   13 fps=0.5 q=37.4 size=       0KiB time=00:00:00.18 bitrate=   1.9kbits/s speed=0.00695x elapsed=0:00:26.36    \nframe=   13 fps=0.5 q=37.4 size=       0KiB time=00:00:00.18 bitrate=   1.9kbits/s speed=0.00682x elapsed=0:00:26.88    \nframe=   14 fps=0.5 q=38.9 size=       0KiB time=00:00:00.20 bitrate=   1.8kbits/s speed=0.0073x elapsed=0:00:27.40    \nframe=   15 fps=0.5 q=39.0 size=       0KiB time=00:00:00.21 bitrate=   1.6kbits/s speed=0.00776x elapsed=0:00:27.92    \nframe=   15 fps=0.5 q=39.0 size=       0KiB time=00:00:00.21 bitrate=   1.6kbits/s speed=0.00762x elapsed=0:00:28.44    \nframe=   16 fps=0.6 q=32.6 size=       0KiB time=00:00:00.23 bitrate=   1.5kbits/s speed=0.00805x elapsed=0:00:28.96    \nframe=   17 fps=0.6 q=38.9 size=       0KiB time=00:00:00.25 bitrate=   1.4kbits/s speed=0.00847x elapsed=0:00:29.49    \nframe=   18 fps=0.6 q=38.9 size=       0KiB time=00:00:00.26 bitrate=   1.3kbits/s speed=0.00888x elapsed=0:00:30.02    \nframe=   18 fps=0.6 q=38.9 size=       0KiB time=00:00:00.26 bitrate=   1.3kbits/s speed=0.00873x elapsed=0:00:30.53    \nframe=   18 fps=0.6 q=38.9 size=       0KiB time=00:00:00.26 bitrate=   1.3kbits/s speed=0.00858x elapsed=0:00:31.07    \nframe=   18 fps=0.6 q=38.9 size=       0KiB time=00:00:00.26 bitrate=   1.3kbits/s speed=0.00843x elapsed=0:00:31.64    \nframe=   18 fps=0.6 q=38.9 size=       0KiB time=00:00:00.26 bitrate=   1.3kbits/s speed=0.00829x elapsed=0:00:32.17    \nframe=   18 fps=0.6 q=38.9 size=       0KiB time=00:00:00.26 bitrate=   1.3kbits/s speed=0.00816x elapsed=0:00:32.69    \nframe=   20 fps=0.6 q=37.9 size=       0KiB time=00:00:00.30 bitrate=   1.2kbits/s speed=0.00904x elapsed=0:00:33.20    \nframe=   20 fps=0.6 q=37.9 size=       0KiB time=00:00:00.30 bitrate=   1.2kbits/s speed=0.0089x elapsed=0:00:33.72    \nframe=   21 fps=0.6 q=31.5 size=       0KiB time=00:00:00.31 bitrate=   1.1kbits/s speed=0.00925x elapsed=0:00:34.24    \nframe=   21 fps=0.6 q=31.5 size=       0KiB time=00:00:00.31 bitrate=   1.1kbits/s speed=0.0091x elapsed=0:00:34.79    \nframe=   21 fps=0.6 q=31.5 size=       0KiB time=00:00:00.31 bitrate=   1.1kbits/s speed=0.00896x elapsed=0:00:35.33    \nframe=   21 fps=0.6 q=31.5 size=       0KiB time=00:00:00.31 bitrate=   1.1kbits/s speed=0.00883x elapsed=0:00:35.84    \nframe=   21 fps=0.6 q=31.5 size=       0KiB time=00:00:00.31 bitrate=   1.1kbits/s speed=0.00871x elapsed=0:00:36.36    \nframe=   21 fps=0.6 q=31.5 size=       0KiB time=00:00:00.31 bitrate=   1.1kbits/s speed=0.00858x elapsed=0:00:36.90    \nframe=   22 fps=0.6 q=37.9 size=       0KiB time=00:00:00.33 bitrate=   1.1kbits/s speed=0.00891x elapsed=0:00:37.40    \nframe=   23 fps=0.6 q=37.8 size=       0KiB time=00:00:00.33 bitrate=   1.1kbits/s speed=0.00879x elapsed=0:00:37.92    \nframe=   23 fps=0.6 q=37.8 size=       0KiB time=00:00:00.35 bitrate=   1.0kbits/s speed=0.00909x elapsed=0:00:38.48    \nframe=   23 fps=0.6 q=37.8 size=       0KiB time=00:00:00.35 bitrate=   1.0kbits/s speed=0.00897x elapsed=0:00:39.02    \nframe=   24 fps=0.6 q=31.3 size=       0KiB time=00:00:00.36 bitrate=   1.0kbits/s speed=0.00927x elapsed=0:00:39.54    \nframe=   24 fps=0.6 q=31.3 size=       0KiB time=00:00:00.36 bitrate=   1.0kbits/s speed=0.00915x elapsed=0:00:40.05    \nframe=   24 fps=0.6 q=31.3 size=       0KiB time=00:00:00.36 bitrate=   1.0kbits/s speed=0.00904x elapsed=0:00:40.58    \nframe=   24 fps=0.6 q=31.3 size=       0KiB time=00:00:00.36 bitrate=   1.0kbits/s speed=0.00892x elapsed=0:00:41.12    \nframe=   24 fps=0.6 q=31.3 size=       0KiB time=00:00:00.36 bitrate=   1.0kbits/s speed=0.0088x elapsed=0:00:41.64    \nframe=   25 fps=0.6 q=36.5 size=       0KiB time=00:00:00.38 bitrate=   0.9kbits/s speed=0.00908x elapsed=0:00:42.21    \nframe=   25 fps=0.6 q=36.5 size=       0KiB time=00:00:00.38 bitrate=   0.9kbits/s speed=0.00897x elapsed=0:00:42.74    \nframe=   26 fps=0.6 q=38.0 size=       0KiB time=00:00:00.40 bitrate=   0.9kbits/s speed=0.00924x elapsed=0:00:43.27    \nframe=   26 fps=0.6 q=38.0 size=       0KiB time=00:00:00.40 bitrate=   0.9kbits/s speed=0.00913x elapsed=0:00:43.81    \nframe=   26 fps=0.6 q=38.0 size=       0KiB time=00:00:00.40 bitrate=   0.9kbits/s speed=0.00902x elapsed=0:00:44.33    \nframe=   27 fps=0.6 q=31.2 size=       0KiB time=00:00:00.41 bitrate=   0.8kbits/s speed=0.00929x elapsed=0:00:44.86    \nframe=   27 fps=0.6 q=31.2 size=       0KiB time=00:00:00.41 bitrate=   0.8kbits/s speed=0.00918x elapsed=0:00:45.37    \nframe=   27 fps=0.6 q=31.2 size=       0KiB time=00:00:00.41 bitrate=   0.8kbits/s speed=0.00908x elapsed=0:00:45.89    \nframe=   27 fps=0.6 q=31.2 size=       0KiB time=00:00:00.41 bitrate=   0.8kbits/s speed=0.00898x elapsed=0:00:46.42    \nframe=   27 fps=0.6 q=31.2 size=       0KiB time=00:00:00.41 bitrate=   0.8kbits/s speed=0.00888x elapsed=0:00:46.94    \nframe=   27 fps=0.6 q=31.2 size=       0KiB time=00:00:00.41 bitrate=   0.8kbits/s speed=0.00877x elapsed=0:00:47.48    \nframe=   28 fps=0.6 q=33.7 size=       0KiB time=00:00:00.43 bitrate=   0.8kbits/s speed=0.00903x elapsed=0:00:48.01    \nframe=   28 fps=0.6 q=33.7 size=       0KiB time=00:00:00.43 bitrate=   0.8kbits/s speed=0.00892x elapsed=0:00:48.55    \nframe=   29 fps=0.6 q=36.9 size=       0KiB time=00:00:00.45 bitrate=   0.8kbits/s speed=0.00916x elapsed=0:00:49.13    \nframe=   29 fps=0.6 q=36.9 size=       0KiB time=00:00:00.45 bitrate=   0.8kbits/s speed=0.00906x elapsed=0:00:49.67    \nframe=   29 fps=0.6 q=36.9 size=       0KiB time=00:00:00.45 bitrate=   0.8kbits/s speed=0.00896x elapsed=0:00:50.20    \nframe=   29 fps=0.6 q=36.9 size=       0KiB time=00:00:00.45 bitrate=   0.8kbits/s speed=0.00887x elapsed=0:00:50.75    \nframe=   30 fps=0.6 q=30.7 size=       0KiB time=00:00:00.46 bitrate=   0.8kbits/s speed=0.0091x elapsed=0:00:51.28    \nframe=   31 fps=0.6 q=37.0 size=       0KiB time=00:00:00.48 bitrate=   0.7kbits/s speed=0.00933x elapsed=0:00:51.81    \nframe=   31 fps=0.6 q=37.0 size=       0KiB time=00:00:00.48 bitrate=   0.7kbits/s speed=0.00923x elapsed=0:00:52.37    \nframe=   31 fps=0.6 q=37.0 size=       0KiB time=00:00:00.48 bitrate=   0.7kbits/s speed=0.00914x elapsed=0:00:52.90    \nframe=   31 fps=0.6 q=37.0 size=       0KiB time=00:00:00.48 bitrate=   0.7kbits/s speed=0.00905x elapsed=0:00:53.42    \nframe=   31 fps=0.6 q=37.0 size=       0KiB time=00:00:00.48 bitrate=   0.7kbits/s speed=0.00895x elapsed=0:00:53.98    \nframe=   32 fps=0.6 q=30.2 size=       0KiB time=00:00:00.50 bitrate=   0.7kbits/s speed=0.00918x elapsed=0:00:54.48    \nframe=   33 fps=0.6 q=35.8 size=       0KiB time=00:00:00.51 bitrate=   0.7kbits/s speed=0.00939x elapsed=0:00:55.02    \nframe=   33 fps=0.6 q=35.8 size=       0KiB time=00:00:00.51 bitrate=   0.7kbits/s speed=0.00929x elapsed=0:00:55.60    \nframe=   34 fps=0.6 q=29.8 size=       0KiB time=00:00:00.53 bitrate=   0.7kbits/s speed=0.0095x elapsed=0:00:56.12    \nframe=   34 fps=0.6 q=29.8 size=       0KiB time=00:00:00.53 bitrate=   0.7kbits/s speed=0.00941x elapsed=0:00:56.67    \nframe=   35 fps=0.6 q=33.3 size=       0KiB time=00:00:00.55 bitrate=   0.6kbits/s speed=0.00961x elapsed=0:00:57.20    \nframe=   35 fps=0.6 q=33.3 size=       0KiB time=00:00:00.55 bitrate=   0.6kbits/s speed=0.00953x elapsed=0:00:57.72    \nframe=   35 fps=0.6 q=33.3 size=       0KiB time=00:00:00.55 bitrate=   0.6kbits/s speed=0.00944x elapsed=0:00:58.25    \nframe=   35 fps=0.6 q=33.3 size=       0KiB time=00:00:00.55 bitrate=   0.6kbits/s speed=0.00935x elapsed=0:00:58.79    \nframe=   36 fps=0.6 q=34.6 size=       0KiB time=00:00:00.56 bitrate=   0.6kbits/s speed=0.00955x elapsed=0:00:59.33    \nframe=   36 fps=0.6 q=34.6 size=       0KiB time=00:00:00.56 bitrate=   0.6kbits/s speed=0.00947x elapsed=0:00:59.86    \nframe=   37 fps=0.6 q=33.7 size=       0KiB time=00:00:00.58 bitrate=   0.6kbits/s speed=0.00966x elapsed=0:01:00.38    \nframe=   38 fps=0.6 q=29.6 size=       0KiB time=00:00:00.60 bitrate=   0.6kbits/s speed=0.00985x elapsed=0:01:00.90    \nframe=   38 fps=0.6 q=29.6 size=       0KiB time=00:00:00.60 bitrate=   0.6kbits/s speed=0.00977x elapsed=0:01:01.42    \nframe=   39 fps=0.6 q=33.6 size=       0KiB time=00:00:00.61 bitrate=   0.6kbits/s speed=0.00995x elapsed=0:01:01.96    \nframe=   39 fps=0.6 q=33.6 size=       0KiB time=00:00:00.61 bitrate=   0.6kbits/s speed=0.00987x elapsed=0:01:02.47    \nframe=   39 fps=0.6 q=33.6 size=       0KiB time=00:00:00.61 bitrate=   0.6kbits/s speed=0.00978x elapsed=0:01:03.02    \nframe=   40 fps=0.6 q=34.6 size=       0KiB time=00:00:00.63 bitrate=   0.6kbits/s speed=0.00996x elapsed=0:01:03.57    \nframe=   40 fps=0.6 q=34.6 size=       0KiB time=00:00:00.63 bitrate=   0.6kbits/s speed=0.00988x elapsed=0:01:04.10    \nframe=   40 fps=0.6 q=34.6 size=       0KiB time=00:00:00.63 bitrate=   0.6kbits/s speed=0.0098x elapsed=0:01:04.64    \nframe=   40 fps=0.6 q=34.6 size=       0KiB time=00:00:00.63 bitrate=   0.6kbits/s speed=0.00972x elapsed=0:01:05.17    \nframe=   41 fps=0.6 q=33.5 size=       0KiB time=00:00:00.65 bitrate=   0.5kbits/s speed=0.00988x elapsed=0:01:05.75    \nframe=   41 fps=0.6 q=33.5 size=       0KiB time=00:00:00.65 bitrate=   0.5kbits/s speed=0.00981x elapsed=0:01:06.26    \nframe=   41 fps=0.6 q=33.5 size=       0KiB time=00:00:00.65 bitrate=   0.5kbits/s speed=0.00973x elapsed=0:01:06.78    \nframe=   42 fps=0.6 q=33.5 size=       0KiB time=00:00:00.66 bitrate=   0.5kbits/s speed=0.0099x elapsed=0:01:07.30    \nframe=   43 fps=0.6 q=28.9 size=       0KiB time=00:00:00.68 bitrate=   0.5kbits/s speed=0.0101x elapsed=0:01:07.82    \nframe=   43 fps=0.6 q=28.9 size=       0KiB time=00:00:00.68 bitrate=   0.5kbits/s speed=0.01x elapsed=0:01:08.34    \nframe=   44 fps=0.6 q=33.3 size=       0KiB time=00:00:00.70 bitrate=   0.5kbits/s speed=0.0102x elapsed=0:01:08.86    \nframe=   44 fps=0.6 q=33.3 size=       0KiB time=00:00:00.70 bitrate=   0.5kbits/s speed=0.0101x elapsed=0:01:09.38    \nframe=   45 fps=0.6 q=33.9 size=       0KiB time=00:00:00.71 bitrate=   0.5kbits/s speed=0.0103x elapsed=0:01:09.91    \nframe=   46 fps=0.7 q=32.1 size=       0KiB time=00:00:00.73 bitrate=   0.5kbits/s speed=0.0104x elapsed=0:01:10.42    \nframe=   46 fps=0.6 q=32.1 size=       0KiB time=00:00:00.73 bitrate=   0.5kbits/s speed=0.0103x elapsed=0:01:10.94    \nframe=   48 fps=0.7 q=31.4 size=       0KiB time=00:00:00.76 bitrate=   0.5kbits/s speed=0.0107x elapsed=0:01:11.48    \nframe=   48 fps=0.7 q=31.4 size=       0KiB time=00:00:00.76 bitrate=   0.5kbits/s speed=0.0107x elapsed=0:01:11.98    \nframe=   49 fps=0.7 q=32.2 size=       0KiB time=00:00:00.78 bitrate=   0.4kbits/s speed=0.0108x elapsed=0:01:12.50    \nframe=   50 fps=0.7 q=33.9 size=       0KiB time=00:00:00.80 bitrate=   0.4kbits/s speed=0.011x elapsed=0:01:13.02    \nframe=   51 fps=0.7 q=29.3 size=       0KiB time=00:00:00.81 bitrate=   0.4kbits/s speed=0.0111x elapsed=0:01:13.53    \nframe=   53 fps=0.7 q=33.4 size=       0KiB time=00:00:00.85 bitrate=   0.4kbits/s speed=0.0115x elapsed=0:01:14.05    \nframe=   53 fps=0.7 q=33.4 size=       0KiB time=00:00:00.85 bitrate=   0.4kbits/s speed=0.0114x elapsed=0:01:14.56    \nframe=   53 fps=0.7 q=33.4 size=       0KiB time=00:00:00.85 bitrate=   0.4kbits/s speed=0.0113x elapsed=0:01:15.08    \nframe=   55 fps=0.7 q=32.7 size=       0KiB time=00:00:00.88 bitrate=   0.4kbits/s speed=0.0117x elapsed=0:01:15.60    \nframe=   56 fps=0.7 q=29.4 size=       0KiB time=00:00:00.90 bitrate=   0.4kbits/s speed=0.0118x elapsed=0:01:16.12    \nframe=   57 fps=0.7 q=32.3 size=       0KiB time=00:00:00.91 bitrate=   0.4kbits/s speed=0.012x elapsed=0:01:16.64    \nframe=   57 fps=0.7 q=32.3 size=       0KiB time=00:00:00.91 bitrate=   0.4kbits/s speed=0.0119x elapsed=0:01:17.16    \nframe=   57 fps=0.7 q=32.3 size=       0KiB time=00:00:00.91 bitrate=   0.4kbits/s speed=0.0118x elapsed=0:01:17.67    \nframe=   58 fps=0.7 q=33.3 size=       0KiB time=00:00:00.93 bitrate=   0.4kbits/s speed=0.0119x elapsed=0:01:18.19    \nframe=   59 fps=0.7 q=33.7 size=       0KiB time=00:00:00.95 bitrate=   0.4kbits/s speed=0.0121x elapsed=0:01:18.70    \nframe=   60 fps=0.8 q=29.1 size=       0KiB time=00:00:00.96 bitrate=   0.4kbits/s speed=0.0122x elapsed=0:01:19.22    \nframe=   61 fps=0.8 q=32.8 size=     256KiB time=00:00:00.98 bitrate=2133.1kbits/s speed=0.0123x elapsed=0:01:19.74    \nframe=   61 fps=0.8 q=32.8 size=     256KiB time=00:00:00.98 bitrate=2133.1kbits/s speed=0.0123x elapsed=0:01:20.26    \nframe=   62 fps=0.8 q=33.6 size=     256KiB time=00:00:01.00 bitrate=2097.5kbits/s speed=0.0124x elapsed=0:01:20.78    \nframe=   63 fps=0.8 q=34.8 size=     256KiB time=00:00:01.01 bitrate=2063.1kbits/s speed=0.0125x elapsed=0:01:21.29    \nframe=   65 fps=0.8 q=34.9 size=     256KiB time=00:00:01.05 bitrate=1997.6kbits/s speed=0.0128x elapsed=0:01:21.81    \nframe=   66 fps=0.8 q=34.9 size=     256KiB time=00:00:01.06 bitrate=1966.4kbits/s speed=0.013x elapsed=0:01:22.33    \nframe=   66 fps=0.8 q=34.9 size=     256KiB time=00:00:01.06 bitrate=1966.4kbits/s speed=0.0129x elapsed=0:01:22.85    \nframe=   67 fps=0.8 q=34.5 size=     256KiB time=00:00:01.08 bitrate=1936.2kbits/s speed=0.013x elapsed=0:01:23.36    \nframe=   69 fps=0.8 q=29.1 size=     256KiB time=00:00:01.11 bitrate=1878.4kbits/s speed=0.0133x elapsed=0:01:23.88    \nframe=   70 fps=0.8 q=33.7 size=     256KiB time=00:00:01.13 bitrate=1850.7kbits/s speed=0.0134x elapsed=0:01:24.38    \nframe=   70 fps=0.8 q=33.7 size=     256KiB time=00:00:01.13 bitrate=1850.7kbits/s speed=0.0133x elapsed=0:01:24.91    \nframe=   71 fps=0.8 q=35.0 size=     256KiB time=00:00:01.15 bitrate=1823.9kbits/s speed=0.0135x elapsed=0:01:25.43    \nframe=   73 fps=0.8 q=29.1 size=     256KiB time=00:00:01.18 bitrate=1772.5kbits/s speed=0.0138x elapsed=0:01:25.93    \nframe=   74 fps=0.9 q=31.3 size=     256KiB time=00:00:01.20 bitrate=1747.9kbits/s speed=0.0139x elapsed=0:01:26.45    \nframe=   75 fps=0.9 q=34.3 size=     256KiB time=00:00:01.21 bitrate=1724.0kbits/s speed=0.014x elapsed=0:01:26.97    \nframe=   75 fps=0.9 q=34.3 size=     256KiB time=00:00:01.21 bitrate=1724.0kbits/s speed=0.0139x elapsed=0:01:27.49    \nframe=   76 fps=0.9 q=33.8 size=     256KiB time=00:00:01.23 bitrate=1700.7kbits/s speed=0.014x elapsed=0:01:28.00    \nframe=   77 fps=0.9 q=34.0 size=     256KiB time=00:00:01.25 bitrate=1678.0kbits/s speed=0.0141x elapsed=0:01:28.52    \nframe=   78 fps=0.9 q=28.4 size=     256KiB time=00:00:01.26 bitrate=1655.9kbits/s speed=0.0142x elapsed=0:01:29.04    \nframe=   78 fps=0.9 q=28.4 size=     256KiB time=00:00:01.26 bitrate=1655.9kbits/s speed=0.0141x elapsed=0:01:29.57    \nframe=   79 fps=0.9 q=32.6 size=     256KiB time=00:00:01.28 bitrate=1634.4kbits/s speed=0.0142x elapsed=0:01:30.12    \nframe=   79 fps=0.9 q=32.6 size=     256KiB time=00:00:01.28 bitrate=1634.4kbits/s speed=0.0142x elapsed=0:01:30.66    \nframe=   79 fps=0.9 q=32.6 size=     256KiB time=00:00:01.28 bitrate=1634.4kbits/s speed=0.0141x elapsed=0:01:31.19    \nframe=   80 fps=0.9 q=34.9 size=     256KiB time=00:00:01.30 bitrate=1613.5kbits/s speed=0.0142x elapsed=0:01:31.72    \nframe=   80 fps=0.9 q=34.9 size=     256KiB time=00:00:01.30 bitrate=1613.5kbits/s speed=0.0141x elapsed=0:01:32.25    \nframe=   80 fps=0.9 q=34.9 size=     256KiB time=00:00:01.30 bitrate=1613.5kbits/s speed=0.014x elapsed=0:01:32.76    \nframe=   80 fps=0.9 q=34.9 size=     256KiB time=00:00:01.30 bitrate=1613.5kbits/s speed=0.0139x elapsed=0:01:33.28    \nframe=   81 fps=0.9 q=34.9 size=     256KiB time=00:00:01.31 bitrate=1593.0kbits/s speed=0.014x elapsed=0:01:33.82    \nframe=   81 fps=0.9 q=34.9 size=     256KiB time=00:00:01.31 bitrate=1593.0kbits/s speed=0.014x elapsed=0:01:34.36    \nframe=   81 fps=0.9 q=34.9 size=     256KiB time=00:00:01.31 bitrate=1593.0kbits/s speed=0.0139x elapsed=0:01:34.91    \nframe=   82 fps=0.9 q=34.8 size=     256KiB time=00:00:01.33 bitrate=1573.1kbits/s speed=0.014x elapsed=0:01:35.47    \nframe=   83 fps=0.9 q=28.8 size=     256KiB time=00:00:01.35 bitrate=1553.7kbits/s speed=0.0141x elapsed=0:01:36.00    \nframe=   83 fps=0.9 q=28.8 size=     256KiB time=00:00:01.35 bitrate=1553.7kbits/s speed=0.014x elapsed=0:01:36.53    \nframe=   84 fps=0.9 q=29.2 size=     256KiB time=00:00:01.36 bitrate=1534.8kbits/s speed=0.0141x elapsed=0:01:37.06    \nframe=   85 fps=0.9 q=35.9 size=     256KiB time=00:00:01.38 bitrate=1516.3kbits/s speed=0.0142x elapsed=0:01:37.58    \nframe=   85 fps=0.9 q=35.9 size=     256KiB time=00:00:01.38 bitrate=1516.3kbits/s speed=0.0141x elapsed=0:01:38.10    \nframe=   85 fps=0.9 q=35.9 size=     256KiB time=00:00:01.38 bitrate=1516.3kbits/s speed=0.014x elapsed=0:01:38.63    \nframe=   85 fps=0.9 q=35.9 size=     256KiB time=00:00:01.38 bitrate=1516.3kbits/s speed=0.014x elapsed=0:01:39.15    \nframe=   85 fps=0.9 q=35.9 size=     256KiB time=00:00:01.38 bitrate=1516.3kbits/s speed=0.0139x elapsed=0:01:39.70    \nframe=   85 fps=0.8 q=35.9 size=     256KiB time=00:00:01.38 bitrate=1516.3kbits/s speed=0.0138x elapsed=0:01:40.22    \nframe=   86 fps=0.9 q=36.0 size=     256KiB time=00:00:01.40 bitrate=1498.2kbits/s speed=0.0139x elapsed=0:01:40.74    \nframe=   86 fps=0.8 q=36.0 size=     256KiB time=00:00:01.40 bitrate=1498.2kbits/s speed=0.0138x elapsed=0:01:41.25    \nframe=   87 fps=0.9 q=35.0 size=     256KiB time=00:00:01.41 bitrate=1480.6kbits/s speed=0.0139x elapsed=0:01:41.78    \nframe=   87 fps=0.9 q=35.0 size=     256KiB time=00:00:01.41 bitrate=1480.6kbits/s speed=0.0138x elapsed=0:01:42.30    \nframe=   88 fps=0.9 q=28.6 size=     256KiB time=00:00:01.43 bitrate=1463.4kbits/s speed=0.0139x elapsed=0:01:42.81    \nframe=   89 fps=0.9 q=29.5 size=     256KiB time=00:00:01.45 bitrate=1446.6kbits/s speed=0.014x elapsed=0:01:43.33    \nframe=   90 fps=0.9 q=35.9 size=     256KiB time=00:00:01.46 bitrate=1430.1kbits/s speed=0.0141x elapsed=0:01:43.85    \nframe=   90 fps=0.9 q=35.9 size=     256KiB time=00:00:01.46 bitrate=1430.1kbits/s speed=0.0141x elapsed=0:01:44.37    \nframe=   90 fps=0.9 q=35.9 size=     256KiB time=00:00:01.46 bitrate=1430.1kbits/s speed=0.014x elapsed=0:01:44.89    \nframe=   91 fps=0.9 q=35.9 size=     256KiB time=00:00:01.48 bitrate=1414.0kbits/s speed=0.0141x elapsed=0:01:45.41    \nframe=   91 fps=0.9 q=35.9 size=     256KiB time=00:00:01.48 bitrate=1414.0kbits/s speed=0.014x elapsed=0:01:45.92    \nframe=   91 fps=0.9 q=35.9 size=     256KiB time=00:00:01.48 bitrate=1414.0kbits/s speed=0.0139x elapsed=0:01:46.45    \nframe=   92 fps=0.9 q=36.0 size=     256KiB time=00:00:01.50 bitrate=1398.3kbits/s speed=0.014x elapsed=0:01:46.97    \nframe=   93 fps=0.9 q=28.4 size=     256KiB time=00:00:01.51 bitrate=1383.0kbits/s speed=0.0141x elapsed=0:01:47.50    \nframe=   93 fps=0.9 q=28.4 size=     256KiB time=00:00:01.51 bitrate=1383.0kbits/s speed=0.014x elapsed=0:01:48.02    \nframe=   93 fps=0.9 q=28.4 size=     256KiB time=00:00:01.51 bitrate=1383.0kbits/s speed=0.014x elapsed=0:01:48.54    \nframe=   93 fps=0.9 q=28.4 size=     256KiB time=00:00:01.51 bitrate=1383.0kbits/s speed=0.0139x elapsed=0:01:49.07    \nframe=   93 fps=0.8 q=28.4 size=     256KiB time=00:00:01.51 bitrate=1383.0kbits/s speed=0.0138x elapsed=0:01:49.59    \nframe=   94 fps=0.9 q=32.1 size=     256KiB time=00:00:01.53 bitrate=1367.9kbits/s speed=0.0139x elapsed=0:01:50.12    \nframe=   94 fps=0.8 q=32.1 size=     256KiB time=00:00:01.53 bitrate=1367.9kbits/s speed=0.0139x elapsed=0:01:50.64    \nframe=   96 fps=0.9 q=28.0 size=     256KiB time=00:00:01.56 bitrate=1338.8kbits/s speed=0.0141x elapsed=0:01:51.16    \nframe=   96 fps=0.9 q=28.0 size=     256KiB time=00:00:01.56 bitrate=1338.8kbits/s speed=0.014x elapsed=0:01:51.70    \nframe=   97 fps=0.9 q=34.0 size=     256KiB time=00:00:01.58 bitrate=1324.7kbits/s speed=0.0141x elapsed=0:01:52.21    \nframe=   98 fps=0.9 q=34.8 size=     256KiB time=00:00:01.60 bitrate=1310.9kbits/s speed=0.0142x elapsed=0:01:52.74    \nframe=   98 fps=0.9 q=34.8 size=     256KiB time=00:00:01.60 bitrate=1310.9kbits/s speed=0.0141x elapsed=0:01:53.26    \nframe=   98 fps=0.9 q=34.8 size=     256KiB time=00:00:01.60 bitrate=1310.9kbits/s speed=0.0141x elapsed=0:01:53.76    \nframe=   98 fps=0.9 q=34.8 size=     256KiB time=00:00:01.60 bitrate=1310.9kbits/s speed=0.014x elapsed=0:01:54.28    \nframe=   99 fps=0.9 q=33.9 size=     256KiB time=00:00:01.61 bitrate=1297.4kbits/s speed=0.0141x elapsed=0:01:54.80    \nframe=   99 fps=0.9 q=33.9 size=     256KiB time=00:00:01.61 bitrate=1297.4kbits/s speed=0.014x elapsed=0:01:55.32    \nframe=   99 fps=0.9 q=33.9 size=     256KiB time=00:00:01.61 bitrate=1297.4kbits/s speed=0.014x elapsed=0:01:55.87    \nframe=   99 fps=0.9 q=33.9 size=     256KiB time=00:00:01.61 bitrate=1297.4kbits/s speed=0.0139x elapsed=0:01:56.43    \nframe=   99 fps=0.8 q=33.9 size=     256KiB time=00:00:01.61 bitrate=1297.4kbits/s speed=0.0138x elapsed=0:01:56.96    \nframe=  100 fps=0.9 q=34.0 size=     256KiB time=00:00:01.63 bitrate=1284.2kbits/s speed=0.0139x elapsed=0:01:57.48    \nframe=  101 fps=0.9 q=28.1 size=     256KiB time=00:00:01.65 bitrate=1271.2kbits/s speed=0.014x elapsed=0:01:58.01    \nframe=  101 fps=0.9 q=28.1 size=     256KiB time=00:00:01.65 bitrate=1271.2kbits/s speed=0.0139x elapsed=0:01:58.51    \nframe=  101 fps=0.8 q=28.1 size=     256KiB time=00:00:01.65 bitrate=1271.2kbits/s speed=0.0139x elapsed=0:01:59.05    \nframe=  102 fps=0.9 q=29.5 size=     256KiB time=00:00:01.66 bitrate=1258.5kbits/s speed=0.0139x elapsed=0:01:59.59    \nframe=  103 fps=0.9 q=34.0 size=     256KiB time=00:00:01.68 bitrate=1246.0kbits/s speed=0.014x elapsed=0:02:00.11    \nframe=  103 fps=0.9 q=34.0 size=     256KiB time=00:00:01.68 bitrate=1246.0kbits/s speed=0.0139x elapsed=0:02:00.68    \nframe=  103 fps=0.8 q=34.0 size=     256KiB time=00:00:01.68 bitrate=1246.0kbits/s speed=0.0139x elapsed=0:02:01.22    \nframe=  103 fps=0.8 q=34.0 size=     256KiB time=00:00:01.68 bitrate=1246.0kbits/s speed=0.0138x elapsed=0:02:01.74    \nframe=  103 fps=0.8 q=34.0 size=     256KiB time=00:00:01.68 bitrate=1246.0kbits/s speed=0.0138x elapsed=0:02:02.26    \nframe=  103 fps=0.8 q=34.0 size=     256KiB time=00:00:01.68 bitrate=1246.0kbits/s speed=0.0137x elapsed=0:02:02.77    \nframe=  103 fps=0.8 q=34.0 size=     256KiB time=00:00:01.68 bitrate=1246.0kbits/s speed=0.0136x elapsed=0:02:03.33    \nframe=  103 fps=0.8 q=34.0 size=     256KiB time=00:00:01.68 bitrate=1246.0kbits/s speed=0.0136x elapsed=0:02:03.86    \nframe=  104 fps=0.8 q=35.0 size=     256KiB time=00:00:01.70 bitrate=1233.8kbits/s speed=0.0137x elapsed=0:02:04.38    \nframe=  106 fps=0.8 q=28.3 size=     256KiB time=00:00:01.73 bitrate=1210.1kbits/s speed=0.0139x elapsed=0:02:04.89    \nframe=  106 fps=0.8 q=28.3 size=     256KiB time=00:00:01.73 bitrate=1210.1kbits/s speed=0.0138x elapsed=0:02:05.42    \nframe=  106 fps=0.8 q=28.3 size=     256KiB time=00:00:01.73 bitrate=1210.1kbits/s speed=0.0138x elapsed=0:02:05.94    \nframe=  106 fps=0.8 q=28.3 size=     256KiB time=00:00:01.73 bitrate=1210.1kbits/s speed=0.0137x elapsed=0:02:06.46    \nframe=  107 fps=0.8 q=29.1 size=     512KiB time=00:00:01.75 bitrate=2396.9kbits/s speed=0.0138x elapsed=0:02:06.98    \nframe=  108 fps=0.8 q=34.9 size=     512KiB time=00:00:01.76 bitrate=2374.3kbits/s speed=0.0139x elapsed=0:02:07.50    \nframe=  108 fps=0.8 q=34.9 size=     512KiB time=00:00:01.76 bitrate=2374.3kbits/s speed=0.0138x elapsed=0:02:08.03    \nframe=  108 fps=0.8 q=34.9 size=     512KiB time=00:00:01.76 bitrate=2374.3kbits/s speed=0.0137x elapsed=0:02:08.57    \nframe=  108 fps=0.8 q=34.9 size=     512KiB time=00:00:01.76 bitrate=2374.3kbits/s speed=0.0137x elapsed=0:02:09.07    \nframe=  108 fps=0.8 q=34.9 size=     512KiB time=00:00:01.76 bitrate=2374.3kbits/s speed=0.0136x elapsed=0:02:09.60    \nframe=  108 fps=0.8 q=34.9 size=     512KiB time=00:00:01.76 bitrate=2374.3kbits/s speed=0.0136x elapsed=0:02:10.13    \nframe=  109 fps=0.8 q=34.9 size=     512KiB time=00:00:01.78 bitrate=2352.1kbits/s speed=0.0137x elapsed=0:02:10.64    \nframe=  109 fps=0.8 q=34.9 size=     512KiB time=00:00:01.78 bitrate=2352.1kbits/s speed=0.0136x elapsed=0:02:11.17    \nframe=  109 fps=0.8 q=34.9 size=     512KiB time=00:00:01.78 bitrate=2352.1kbits/s speed=0.0135x elapsed=0:02:11.72    \nframe=  109 fps=0.8 q=34.9 size=     512KiB time=00:00:01.78 bitrate=2352.1kbits/s speed=0.0135x elapsed=0:02:12.27    \nframe=  110 fps=0.8 q=35.9 size=     512KiB time=00:00:01.80 bitrate=2330.4kbits/s speed=0.0136x elapsed=0:02:12.79    \nframe=  111 fps=0.8 q=28.6 size=     512KiB time=00:00:01.81 bitrate=2309.0kbits/s speed=0.0136x elapsed=0:02:13.33    \nframe=  111 fps=0.8 q=28.6 size=     512KiB time=00:00:01.81 bitrate=2309.0kbits/s speed=0.0136x elapsed=0:02:13.90    \nframe=  112 fps=0.8 q=35.0 size=     512KiB time=00:00:01.83 bitrate=2288.0kbits/s speed=0.0136x elapsed=0:02:14.42    \nframe=  113 fps=0.8 q=36.0 size=     512KiB time=00:00:01.85 bitrate=2267.4kbits/s speed=0.0137x elapsed=0:02:14.99    \nframe=  114 fps=0.8 q=36.0 size=     512KiB time=00:00:01.85 bitrate=2267.4kbits/s speed=0.0136x elapsed=0:02:15.59    \nframe=  114 fps=0.8 q=36.0 size=     512KiB time=00:00:01.86 bitrate=2247.1kbits/s speed=0.0137x elapsed=0:02:16.22    \nframe=  114 fps=0.8 q=36.0 size=     512KiB time=00:00:01.86 bitrate=2247.1kbits/s speed=0.0136x elapsed=0:02:16.76    \nframe=  115 fps=0.8 q=36.0 size=     512KiB time=00:00:01.88 bitrate=2227.3kbits/s speed=0.0137x elapsed=0:02:17.34    \nframe=  115 fps=0.8 q=36.0 size=     512KiB time=00:00:01.88 bitrate=2227.3kbits/s speed=0.0137x elapsed=0:02:17.88    \nframe=  115 fps=0.8 q=36.0 size=     512KiB time=00:00:01.88 bitrate=2227.3kbits/s speed=0.0136x elapsed=0:02:18.45    \nframe=  115 fps=0.8 q=36.0 size=     512KiB time=00:00:01.88 bitrate=2227.3kbits/s speed=0.0135x elapsed=0:02:19.08    \nframe=  115 fps=0.8 q=36.0 size=     512KiB time=00:00:01.88 bitrate=2227.3kbits/s speed=0.0135x elapsed=0:02:19.62    \nframe=  116 fps=0.8 q=28.7 size=     512KiB time=00:00:01.88 bitrate=2227.3kbits/s speed=0.0134x elapsed=0:02:20.24    \nframe=  116 fps=0.8 q=28.7 size=     512KiB time=00:00:01.90 bitrate=2207.7kbits/s speed=0.0135x elapsed=0:02:21.02    \nframe=  117 fps=0.8 q=36.0 size=     512KiB time=00:00:01.91 bitrate=2188.5kbits/s speed=0.0135x elapsed=0:02:21.65    \nframe=  117 fps=0.8 q=36.0 size=     512KiB time=00:00:01.91 bitrate=2188.5kbits/s speed=0.0135x elapsed=0:02:22.28    \nframe=  117 fps=0.8 q=36.0 size=     512KiB time=00:00:01.91 bitrate=2188.5kbits/s speed=0.0134x elapsed=0:02:22.93    \nframe=  118 fps=0.8 q=37.0 size=     512KiB time=00:00:01.91 bitrate=2188.5kbits/s speed=0.0133x elapsed=0:02:23.57    \nframe=  118 fps=0.8 q=37.0 size=     512KiB time=00:00:01.93 bitrate=2169.7kbits/s speed=0.0134x elapsed=0:02:24.12    \nframe=  118 fps=0.8 q=37.0 size=     512KiB time=00:00:01.93 bitrate=2169.7kbits/s speed=0.0134x elapsed=0:02:24.78    \nframe=  118 fps=0.8 q=37.0 size=     512KiB time=00:00:01.93 bitrate=2169.7kbits/s speed=0.0133x elapsed=0:02:25.40    \nframe=  118 fps=0.8 q=37.0 size=     512KiB time=00:00:01.93 bitrate=2169.7kbits/s speed=0.0132x elapsed=0:02:25.94    \nframe=  118 fps=0.8 q=37.0 size=     512KiB time=00:00:01.93 bitrate=2169.7kbits/s speed=0.0132x elapsed=0:02:26.49    \nframe=  118 fps=0.8 q=37.0 size=     512KiB time=00:00:01.93 bitrate=2169.7kbits/s speed=0.0131x elapsed=0:02:27.15    \nframe=  118 fps=0.8 q=37.0 size=     512KiB time=00:00:01.93 bitrate=2169.7kbits/s speed=0.0131x elapsed=0:02:27.67    \nframe=  119 fps=0.8 q=37.0 size=     512KiB time=00:00:01.95 bitrate=2151.1kbits/s speed=0.0132x elapsed=0:02:28.21    \nframe=  119 fps=0.8 q=37.0 size=     512KiB time=00:00:01.95 bitrate=2151.1kbits/s speed=0.0131x elapsed=0:02:28.74    \nframe=  120 fps=0.8 q=37.0 size=     512KiB time=00:00:01.96 bitrate=2132.9kbits/s speed=0.0132x elapsed=0:02:29.26    \nframe=  120 fps=0.8 q=37.0 size=     512KiB time=00:00:01.96 bitrate=2132.9kbits/s speed=0.0131x elapsed=0:02:29.78    \nframe=  121 fps=0.8 q=28.9 size=     512KiB time=00:00:01.98 bitrate=2115.0kbits/s speed=0.0132x elapsed=0:02:30.32    \nframe=  121 fps=0.8 q=28.9 size=     512KiB time=00:00:01.98 bitrate=2115.0kbits/s speed=0.0131x elapsed=0:02:30.84    \nframe=  122 fps=0.8 q=36.0 size=     512KiB time=00:00:02.00 bitrate=2097.3kbits/s speed=0.0132x elapsed=0:02:31.41    \nframe=  122 fps=0.8 q=36.0 size=     512KiB time=00:00:02.00 bitrate=2097.3kbits/s speed=0.0132x elapsed=0:02:31.99    \nframe=  123 fps=0.8 q=37.0 size=     512KiB time=00:00:02.01 bitrate=2080.0kbits/s speed=0.0132x elapsed=0:02:32.54    \nframe=  123 fps=0.8 q=37.0 size=     512KiB time=00:00:02.01 bitrate=2080.0kbits/s speed=0.0132x elapsed=0:02:33.08    \nframe=  124 fps=0.8 q=36.0 size=     512KiB time=00:00:02.03 bitrate=2062.9kbits/s speed=0.0132x elapsed=0:02:33.60    \nframe=  125 fps=0.8 q=35.0 size=     512KiB time=00:00:02.05 bitrate=2046.2kbits/s speed=0.0133x elapsed=0:02:34.12    \nframe=  127 fps=0.8 q=35.0 size=     512KiB time=00:00:02.08 bitrate=2013.4kbits/s speed=0.0135x elapsed=0:02:34.65    \nframe=  128 fps=0.8 q=35.0 size=     512KiB time=00:00:02.10 bitrate=1997.5kbits/s speed=0.0135x elapsed=0:02:35.17    \nframe=  128 fps=0.8 q=35.0 size=     512KiB time=00:00:02.10 bitrate=1997.5kbits/s speed=0.0135x elapsed=0:02:35.68    \nframe=  129 fps=0.8 q=33.8 size=     512KiB time=00:00:02.11 bitrate=1981.7kbits/s speed=0.0136x elapsed=0:02:36.20    \nframe=  129 fps=0.8 q=33.8 size=     512KiB time=00:00:02.11 bitrate=1981.7kbits/s speed=0.0135x elapsed=0:02:36.75    \nframe=  131 fps=0.8 q=28.1 size=     512KiB time=00:00:02.15 bitrate=1951.0kbits/s speed=0.0137x elapsed=0:02:37.30    \nframe=  131 fps=0.8 q=28.1 size=     512KiB time=00:00:02.15 bitrate=1951.0kbits/s speed=0.0136x elapsed=0:02:37.85    \nframe=  131 fps=0.8 q=28.1 size=     512KiB time=00:00:02.15 bitrate=1951.0kbits/s speed=0.0136x elapsed=0:02:38.41    \nframe=  132 fps=0.8 q=33.0 size=     512KiB time=00:00:02.16 bitrate=1936.0kbits/s speed=0.0136x elapsed=0:02:38.95    \nframe=  133 fps=0.8 q=33.7 size=     512KiB time=00:00:02.18 bitrate=1921.2kbits/s speed=0.0137x elapsed=0:02:39.49    \nframe=  133 fps=0.8 q=33.7 size=     512KiB time=00:00:02.18 bitrate=1921.2kbits/s speed=0.0136x elapsed=0:02:40.03    \nframe=  134 fps=0.8 q=32.9 size=     512KiB time=00:00:02.20 bitrate=1906.7kbits/s speed=0.0137x elapsed=0:02:40.59    \nframe=  135 fps=0.8 q=32.3 size=     512KiB time=00:00:02.21 bitrate=1892.3kbits/s speed=0.0138x elapsed=0:02:41.11    \nframe=  135 fps=0.8 q=32.3 size=     512KiB time=00:00:02.21 bitrate=1892.3kbits/s speed=0.0137x elapsed=0:02:41.62    \nframe=  135 fps=0.8 q=32.3 size=     512KiB time=00:00:02.21 bitrate=1892.3kbits/s speed=0.0137x elapsed=0:02:42.17    \nframe=  135 fps=0.8 q=32.3 size=     512KiB time=00:00:02.21 bitrate=1892.3kbits/s speed=0.0136x elapsed=0:02:42.69    \nframe=  135 fps=0.8 q=32.3 size=     512KiB time=00:00:02.21 bitrate=1892.3kbits/s speed=0.0136x elapsed=0:02:43.25    \nframe=  137 fps=0.8 q=31.9 size=     512KiB time=00:00:02.25 bitrate=1864.3kbits/s speed=0.0137x elapsed=0:02:43.83    \nframe=  137 fps=0.8 q=31.9 size=     512KiB time=00:00:02.25 bitrate=1864.3kbits/s speed=0.0137x elapsed=0:02:44.35    \nframe=  137 fps=0.8 q=31.9 size=     512KiB time=00:00:02.25 bitrate=1864.3kbits/s speed=0.0136x elapsed=0:02:44.89    \nframe=  137 fps=0.8 q=31.9 size=     512KiB time=00:00:02.25 bitrate=1864.3kbits/s speed=0.0136x elapsed=0:02:45.40    \nframe=  137 fps=0.8 q=31.9 size=     512KiB time=00:00:02.25 bitrate=1864.3kbits/s speed=0.0136x elapsed=0:02:45.96    \nframe=  137 fps=0.8 q=31.9 size=     512KiB time=00:00:02.25 bitrate=1864.3kbits/s speed=0.0135x elapsed=0:02:46.52    \nframe=  139 fps=0.8 q=35.0 size=     512KiB time=00:00:02.28 bitrate=1837.1kbits/s speed=0.0137x elapsed=0:02:47.07    \nframe=  139 fps=0.8 q=35.0 size=     512KiB time=00:00:02.28 bitrate=1837.1kbits/s speed=0.0136x elapsed=0:02:47.63    \nframe=  139 fps=0.8 q=35.0 size=     512KiB time=00:00:02.28 bitrate=1837.1kbits/s speed=0.0136x elapsed=0:02:48.15    \nframe=  139 fps=0.8 q=35.0 size=     512KiB time=00:00:02.28 bitrate=1837.1kbits/s speed=0.0135x elapsed=0:02:48.68    \nframe=  140 fps=0.8 q=28.7 size=     512KiB time=00:00:02.30 bitrate=1823.8kbits/s speed=0.0136x elapsed=0:02:49.25    \nframe=  140 fps=0.8 q=28.7 size=     512KiB time=00:00:02.30 bitrate=1823.8kbits/s speed=0.0135x elapsed=0:02:49.76    \nframe=  141 fps=0.8 q=34.0 size=     512KiB time=00:00:02.31 bitrate=1810.6kbits/s speed=0.0136x elapsed=0:02:50.30    \nframe=  142 fps=0.8 q=35.0 size=     512KiB time=00:00:02.33 bitrate=1797.7kbits/s speed=0.0137x elapsed=0:02:50.84    \nframe=  142 fps=0.8 q=35.0 size=     512KiB time=00:00:02.33 bitrate=1797.7kbits/s speed=0.0136x elapsed=0:02:51.38    \nframe=  142 fps=0.8 q=35.0 size=     512KiB time=00:00:02.33 bitrate=1797.7kbits/s speed=0.0136x elapsed=0:02:51.92    \nframe=  142 fps=0.8 q=35.0 size=     512KiB time=00:00:02.33 bitrate=1797.7kbits/s speed=0.0135x elapsed=0:02:52.45    \nframe=  142 fps=0.8 q=35.0 size=     512KiB time=00:00:02.33 bitrate=1797.7kbits/s speed=0.0135x elapsed=0:02:52.98    \nframe=  143 fps=0.8 q=34.7 size=     512KiB time=00:00:02.35 bitrate=1785.0kbits/s speed=0.0135x elapsed=0:02:53.50    \nframe=  144 fps=0.8 q=35.0 size=     512KiB time=00:00:02.36 bitrate=1772.4kbits/s speed=0.0136x elapsed=0:02:54.07    \nframe=  144 fps=0.8 q=35.0 size=     512KiB time=00:00:02.36 bitrate=1772.4kbits/s speed=0.0136x elapsed=0:02:54.61    \nframe=  144 fps=0.8 q=35.0 size=     512KiB time=00:00:02.36 bitrate=1772.4kbits/s speed=0.0135x elapsed=0:02:55.13    \nframe=  145 fps=0.8 q=29.2 size=     512KiB time=00:00:02.38 bitrate=1760.0kbits/s speed=0.0136x elapsed=0:02:55.70    \nframe=  146 fps=0.8 q=34.9 size=     512KiB time=00:00:02.40 bitrate=1747.8kbits/s speed=0.0136x elapsed=0:02:56.22    \nframe=  147 fps=0.8 q=35.9 size=     512KiB time=00:00:02.41 bitrate=1735.7kbits/s speed=0.0137x elapsed=0:02:56.76    \nframe=  147 fps=0.8 q=35.9 size=     512KiB time=00:00:02.41 bitrate=1735.7kbits/s speed=0.0136x elapsed=0:02:57.29    \nframe=  147 fps=0.8 q=35.9 size=     512KiB time=00:00:02.41 bitrate=1735.7kbits/s speed=0.0136x elapsed=0:02:57.83    \nframe=  148 fps=0.8 q=34.9 size=     512KiB time=00:00:02.43 bitrate=1723.8kbits/s speed=0.0136x elapsed=0:02:58.35    \nframe=  148 fps=0.8 q=34.9 size=     512KiB time=00:00:02.43 bitrate=1723.8kbits/s speed=0.0136x elapsed=0:02:58.89    \nframe=  149 fps=0.8 q=34.8 size=     512KiB time=00:00:02.45 bitrate=1712.1kbits/s speed=0.0137x elapsed=0:02:59.41    \nframe=  150 fps=0.8 q=29.3 size=     512KiB time=00:00:02.46 bitrate=1700.5kbits/s speed=0.0137x elapsed=0:02:59.94    \nframe=  150 fps=0.8 q=29.3 size=     512KiB time=00:00:02.46 bitrate=1700.5kbits/s speed=0.0137x elapsed=0:03:00.47    \nframe=  150 fps=0.8 q=29.3 size=     512KiB time=00:00:02.46 bitrate=1700.5kbits/s speed=0.0136x elapsed=0:03:00.98    \nframe=  151 fps=0.8 q=31.2 size=     512KiB time=00:00:02.48 bitrate=1689.1kbits/s speed=0.0137x elapsed=0:03:01.50    \nframe=  152 fps=0.8 q=36.0 size=     512KiB time=00:00:02.50 bitrate=1677.9kbits/s speed=0.0137x elapsed=0:03:02.03    \nframe=  152 fps=0.8 q=36.0 size=     512KiB time=00:00:02.50 bitrate=1677.9kbits/s speed=0.0137x elapsed=0:03:02.58    \nframe=  153 fps=0.8 q=35.9 size=     512KiB time=00:00:02.51 bitrate=1666.8kbits/s speed=0.0137x elapsed=0:03:03.10    \nframe=  153 fps=0.8 q=35.9 size=     512KiB time=00:00:02.51 bitrate=1666.8kbits/s speed=0.0137x elapsed=0:03:03.73    \nframe=  154 fps=0.8 q=36.0 size=     512KiB time=00:00:02.53 bitrate=1655.8kbits/s speed=0.0137x elapsed=0:03:04.34    \nframe=  154 fps=0.8 q=36.0 size=     512KiB time=00:00:02.53 bitrate=1655.8kbits/s speed=0.0137x elapsed=0:03:04.88    \nframe=  154 fps=0.8 q=36.0 size=     512KiB time=00:00:02.53 bitrate=1655.8kbits/s speed=0.0137x elapsed=0:03:05.43    \nframe=  155 fps=0.8 q=29.5 size=     512KiB time=00:00:02.55 bitrate=1645.0kbits/s speed=0.0137x elapsed=0:03:05.97    \nframe=  156 fps=0.8 q=34.9 size=     512KiB time=00:00:02.56 bitrate=1634.3kbits/s speed=0.0138x elapsed=0:03:06.51    \nframe=  156 fps=0.8 q=34.9 size=     512KiB time=00:00:02.56 bitrate=1634.3kbits/s speed=0.0137x elapsed=0:03:07.05    \nframe=  156 fps=0.8 q=34.9 size=     512KiB time=00:00:02.56 bitrate=1634.3kbits/s speed=0.0137x elapsed=0:03:07.61    \nframe=  157 fps=0.8 q=36.0 size=     512KiB time=00:00:02.58 bitrate=1623.7kbits/s speed=0.0137x elapsed=0:03:08.23    \nframe=  158 fps=0.8 q=36.0 size=     512KiB time=00:00:02.60 bitrate=1613.3kbits/s speed=0.0138x elapsed=0:03:08.80    \nframe=  158 fps=0.8 q=36.0 size=     512KiB time=00:00:02.60 bitrate=1613.3kbits/s speed=0.0137x elapsed=0:03:09.35    \nframe=  158 fps=0.8 q=36.0 size=     512KiB time=00:00:02.60 bitrate=1613.3kbits/s speed=0.0137x elapsed=0:03:09.89    \nframe=  159 fps=0.8 q=35.8 size=     512KiB time=00:00:02.61 bitrate=1603.1kbits/s speed=0.0137x elapsed=0:03:10.46    \nframe=  159 fps=0.8 q=35.8 size=     512KiB time=00:00:02.61 bitrate=1603.1kbits/s speed=0.0137x elapsed=0:03:10.98    \nframe=  161 fps=0.8 q=33.6 size=     768KiB time=00:00:02.65 bitrate=2374.3kbits/s speed=0.0138x elapsed=0:03:11.50    \nframe=  161 fps=0.8 q=33.6 size=     768KiB time=00:00:02.65 bitrate=2374.3kbits/s speed=0.0138x elapsed=0:03:12.03    \nframe=  161 fps=0.8 q=33.6 size=     768KiB time=00:00:02.65 bitrate=2374.3kbits/s speed=0.0138x elapsed=0:03:12.54    \nframe=  163 fps=0.8 q=35.7 size=     768KiB time=00:00:02.68 bitrate=2344.8kbits/s speed=0.0139x elapsed=0:03:13.10    \nframe=  165 fps=0.9 q=34.4 size=     768KiB time=00:00:02.71 bitrate=2316.0kbits/s speed=0.014x elapsed=0:03:13.62    \nframe=  165 fps=0.8 q=34.4 size=     768KiB time=00:00:02.71 bitrate=2316.0kbits/s speed=0.014x elapsed=0:03:14.16    \nframe=  166 fps=0.9 q=35.9 size=     768KiB time=00:00:02.73 bitrate=2301.9kbits/s speed=0.014x elapsed=0:03:14.69    \nframe=  166 fps=0.9 q=35.9 size=     768KiB time=00:00:02.73 bitrate=2301.9kbits/s speed=0.014x elapsed=0:03:15.27    \nframe=  167 fps=0.9 q=36.0 size=     768KiB time=00:00:02.75 bitrate=2287.9kbits/s speed=0.014x elapsed=0:03:15.83    \nframe=  167 fps=0.9 q=36.0 size=     768KiB time=00:00:02.75 bitrate=2287.9kbits/s speed=0.014x elapsed=0:03:16.37    \nframe=  167 fps=0.8 q=36.0 size=     768KiB time=00:00:02.75 bitrate=2287.9kbits/s speed=0.014x elapsed=0:03:16.90    \nframe=  167 fps=0.8 q=36.0 size=     768KiB time=00:00:02.75 bitrate=2287.9kbits/s speed=0.0139x elapsed=0:03:17.46    \nframe=  167 fps=0.8 q=36.0 size=     768KiB time=00:00:02.75 bitrate=2287.9kbits/s speed=0.0139x elapsed=0:03:17.97    \nframe=  167 fps=0.8 q=36.0 size=     768KiB time=00:00:02.75 bitrate=2287.9kbits/s speed=0.0139x elapsed=0:03:18.48    \nframe=  167 fps=0.8 q=36.0 size=     768KiB time=00:00:02.75 bitrate=2287.9kbits/s speed=0.0138x elapsed=0:03:19.05    \nframe=  168 fps=0.8 q=30.3 size=     768KiB time=00:00:02.76 bitrate=2274.1kbits/s speed=0.0139x elapsed=0:03:19.61    \nframe=  168 fps=0.8 q=30.3 size=     768KiB time=00:00:02.76 bitrate=2274.1kbits/s speed=0.0138x elapsed=0:03:20.13    \nframe=  168 fps=0.8 q=30.3 size=     768KiB time=00:00:02.76 bitrate=2274.1kbits/s speed=0.0138x elapsed=0:03:20.78    \nframe=  169 fps=0.8 q=36.0 size=     768KiB time=00:00:02.78 bitrate=2260.5kbits/s speed=0.0138x elapsed=0:03:21.35    \nframe=  169 fps=0.8 q=36.0 size=     768KiB time=00:00:02.78 bitrate=2260.5kbits/s speed=0.0138x elapsed=0:03:21.88    \nframe=  169 fps=0.8 q=36.0 size=     768KiB time=00:00:02.78 bitrate=2260.5kbits/s speed=0.0137x elapsed=0:03:22.43    \nframe=  171 fps=0.8 q=33.5 size=     768KiB time=00:00:02.81 bitrate=2233.8kbits/s speed=0.0139x elapsed=0:03:23.03    \nframe=  171 fps=0.8 q=33.5 size=     768KiB time=00:00:02.81 bitrate=2233.8kbits/s speed=0.0138x elapsed=0:03:23.55    \nframe=  171 fps=0.8 q=33.5 size=     768KiB time=00:00:02.81 bitrate=2233.8kbits/s speed=0.0138x elapsed=0:03:24.07    \nframe=  171 fps=0.8 q=33.5 size=     768KiB time=00:00:02.81 bitrate=2233.8kbits/s speed=0.0138x elapsed=0:03:24.63    \nframe=  171 fps=0.8 q=33.5 size=     768KiB time=00:00:02.81 bitrate=2233.8kbits/s speed=0.0137x elapsed=0:03:25.22    \nframe=  172 fps=0.8 q=35.9 size=     768KiB time=00:00:02.83 bitrate=2220.6kbits/s speed=0.0138x elapsed=0:03:25.75    \nframe=  173 fps=0.8 q=35.8 size=     768KiB time=00:00:02.85 bitrate=2207.7kbits/s speed=0.0138x elapsed=0:03:26.28    \nframe=  173 fps=0.8 q=35.8 size=     768KiB time=00:00:02.85 bitrate=2207.7kbits/s speed=0.0138x elapsed=0:03:26.79    \nframe=  174 fps=0.8 q=30.5 size=     768KiB time=00:00:02.86 bitrate=2194.8kbits/s speed=0.0138x elapsed=0:03:27.32    \nframe=  175 fps=0.8 q=33.8 size=     768KiB time=00:00:02.88 bitrate=2182.1kbits/s speed=0.0139x elapsed=0:03:27.86    \nframe=  175 fps=0.8 q=33.8 size=     768KiB time=00:00:02.88 bitrate=2182.1kbits/s speed=0.0138x elapsed=0:03:28.37    \nframe=  175 fps=0.8 q=33.8 size=     768KiB time=00:00:02.88 bitrate=2182.1kbits/s speed=0.0138x elapsed=0:03:28.93    \nframe=  176 fps=0.8 q=35.6 size=     768KiB time=00:00:02.90 bitrate=2169.6kbits/s speed=0.0138x elapsed=0:03:29.46    \nframe=  177 fps=0.8 q=36.0 size=     768KiB time=00:00:02.91 bitrate=2157.2kbits/s speed=0.0139x elapsed=0:03:30.03    \nframe=  177 fps=0.8 q=36.0 size=     768KiB time=00:00:02.91 bitrate=2157.2kbits/s speed=0.0139x elapsed=0:03:30.58    \nframe=  177 fps=0.8 q=36.0 size=     768KiB time=00:00:02.91 bitrate=2157.2kbits/s speed=0.0138x elapsed=0:03:31.14    \nframe=  177 fps=0.8 q=36.0 size=     768KiB time=00:00:02.91 bitrate=2157.2kbits/s speed=0.0138x elapsed=0:03:31.70    \nframe=  178 fps=0.8 q=30.6 size=     768KiB time=00:00:02.93 bitrate=2144.9kbits/s speed=0.0138x elapsed=0:03:32.24    \nframe=  178 fps=0.8 q=30.6 size=     768KiB time=00:00:02.93 bitrate=2144.9kbits/s speed=0.0138x elapsed=0:03:32.77    \nframe=  178 fps=0.8 q=30.6 size=     768KiB time=00:00:02.93 bitrate=2144.9kbits/s speed=0.0138x elapsed=0:03:33.31    \nframe=  178 fps=0.8 q=30.6 size=     768KiB time=00:00:02.93 bitrate=2144.9kbits/s speed=0.0137x elapsed=0:03:33.83    \nframe=  179 fps=0.8 q=35.3 size=     768KiB time=00:00:02.95 bitrate=2132.8kbits/s speed=0.0138x elapsed=0:03:34.36    \nframe=  180 fps=0.8 q=36.3 size=     768KiB time=00:00:02.96 bitrate=2120.8kbits/s speed=0.0138x elapsed=0:03:34.90    \nframe=  181 fps=0.8 q=31.3 size=     768KiB time=00:00:02.98 bitrate=2109.0kbits/s speed=0.0138x elapsed=0:03:35.43    \nframe=  181 fps=0.8 q=31.3 size=     768KiB time=00:00:02.98 bitrate=2109.0kbits/s speed=0.0138x elapsed=0:03:35.96    \nframe=  181 fps=0.8 q=31.3 size=     768KiB time=00:00:02.98 bitrate=2109.0kbits/s speed=0.0138x elapsed=0:03:36.52    \nframe=  181 fps=0.8 q=31.3 size=     768KiB time=00:00:02.98 bitrate=2109.0kbits/s speed=0.0137x elapsed=0:03:37.04    \nframe=  181 fps=0.8 q=31.3 size=     768KiB time=00:00:02.98 bitrate=2109.0kbits/s speed=0.0137x elapsed=0:03:37.60    \nframe=  181 fps=0.8 q=31.3 size=     768KiB time=00:00:02.98 bitrate=2109.0kbits/s speed=0.0137x elapsed=0:03:38.15    \nframe=  182 fps=0.8 q=36.9 size=     768KiB time=00:00:03.00 bitrate=2097.3kbits/s speed=0.0137x elapsed=0:03:38.72    \nframe=  182 fps=0.8 q=36.9 size=     768KiB time=00:00:03.00 bitrate=2097.3kbits/s speed=0.0137x elapsed=0:03:39.24    \nframe=  183 fps=0.8 q=37.0 size=     768KiB time=00:00:03.01 bitrate=2085.7kbits/s speed=0.0137x elapsed=0:03:39.76    \nframe=  184 fps=0.8 q=30.5 size=     768KiB time=00:00:03.03 bitrate=2074.2kbits/s speed=0.0138x elapsed=0:03:40.30    \nframe=  185 fps=0.8 q=34.5 size=     768KiB time=00:00:03.05 bitrate=2062.9kbits/s speed=0.0138x elapsed=0:03:40.81    \nframe=  185 fps=0.8 q=34.5 size=     768KiB time=00:00:03.05 bitrate=2062.9kbits/s speed=0.0138x elapsed=0:03:41.32    \nframe=  185 fps=0.8 q=34.5 size=     768KiB time=00:00:03.05 bitrate=2062.9kbits/s speed=0.0137x elapsed=0:03:41.85    \nframe=  185 fps=0.8 q=34.5 size=     768KiB time=00:00:03.05 bitrate=2062.9kbits/s speed=0.0137x elapsed=0:03:42.39    \nframe=  187 fps=0.8 q=36.8 size=     768KiB time=00:00:03.08 bitrate=2040.6kbits/s speed=0.0138x elapsed=0:03:42.92    \nframe=  187 fps=0.8 q=36.8 size=     768KiB time=00:00:03.08 bitrate=2040.6kbits/s speed=0.0138x elapsed=0:03:43.48    \nframe=  187 fps=0.8 q=36.8 size=     768KiB time=00:00:03.08 bitrate=2040.6kbits/s speed=0.0138x elapsed=0:03:44.04    \nframe=  187 fps=0.8 q=36.8 size=     768KiB time=00:00:03.08 bitrate=2040.6kbits/s speed=0.0137x elapsed=0:03:44.57    \nframe=  187 fps=0.8 q=36.8 size=     768KiB time=00:00:03.08 bitrate=2040.6kbits/s speed=0.0137x elapsed=0:03:45.18    \nframe=  187 fps=0.8 q=36.8 size=     768KiB time=00:00:03.08 bitrate=2040.6kbits/s speed=0.0137x elapsed=0:03:45.85    \nframe=  188 fps=0.8 q=31.7 size=     768KiB time=00:00:03.10 bitrate=2029.6kbits/s speed=0.0137x elapsed=0:03:46.43    \nframe=  188 fps=0.8 q=31.7 size=     768KiB time=00:00:03.10 bitrate=2029.6kbits/s speed=0.0137x elapsed=0:03:46.95    \nframe=  188 fps=0.8 q=31.7 size=     768KiB time=00:00:03.10 bitrate=2029.6kbits/s speed=0.0136x elapsed=0:03:47.47    \nframe=  189 fps=0.8 q=36.3 size=     768KiB time=00:00:03.11 bitrate=2018.8kbits/s speed=0.0137x elapsed=0:03:47.99    \nframe=  189 fps=0.8 q=36.3 size=     768KiB time=00:00:03.11 bitrate=2018.8kbits/s speed=0.0136x elapsed=0:03:48.51    \nframe=  190 fps=0.8 q=37.8 size=     768KiB time=00:00:03.13 bitrate=2008.0kbits/s speed=0.0137x elapsed=0:03:49.04    \nframe=  191 fps=0.8 q=37.9 size=     768KiB time=00:00:03.15 bitrate=1997.4kbits/s speed=0.0137x elapsed=0:03:49.58    \nframe=  191 fps=0.8 q=37.9 size=     768KiB time=00:00:03.15 bitrate=1997.4kbits/s speed=0.0137x elapsed=0:03:50.09    \nframe=  191 fps=0.8 q=37.9 size=     768KiB time=00:00:03.15 bitrate=1997.4kbits/s speed=0.0137x elapsed=0:03:50.64    \nframe=  191 fps=0.8 q=37.9 size=     768KiB time=00:00:03.15 bitrate=1997.4kbits/s speed=0.0136x elapsed=0:03:51.16    \nframe=  192 fps=0.8 q=31.3 size=     768KiB time=00:00:03.16 bitrate=1986.9kbits/s speed=0.0137x elapsed=0:03:51.68    \nframe=  192 fps=0.8 q=31.3 size=     768KiB time=00:00:03.16 bitrate=1986.9kbits/s speed=0.0136x elapsed=0:03:52.19    \nframe=  193 fps=0.8 q=34.4 size=     768KiB time=00:00:03.18 bitrate=1976.5kbits/s speed=0.0137x elapsed=0:03:52.71    \nframe=  193 fps=0.8 q=34.4 size=     768KiB time=00:00:03.18 bitrate=1976.5kbits/s speed=0.0136x elapsed=0:03:53.22    \nframe=  194 fps=0.8 q=37.8 size=     768KiB time=00:00:03.20 bitrate=1966.2kbits/s speed=0.0137x elapsed=0:03:53.74    \nframe=  195 fps=0.8 q=37.7 size=     768KiB time=00:00:03.21 bitrate=1956.0kbits/s speed=0.0137x elapsed=0:03:54.26    \nframe=  197 fps=0.8 q=36.0 size=    1024KiB time=00:00:03.25 bitrate=2581.2kbits/s speed=0.0138x elapsed=0:03:54.78    \nframe=  197 fps=0.8 q=36.0 size=    1024KiB time=00:00:03.25 bitrate=2581.2kbits/s speed=0.0138x elapsed=0:03:55.31    \nframe=  198 fps=0.8 q=37.9 size=    1024KiB time=00:00:03.26 bitrate=2568.0kbits/s speed=0.0139x elapsed=0:03:55.82    \nframe=  199 fps=0.8 q=38.7 size=    1024KiB time=00:00:03.28 bitrate=2555.0kbits/s speed=0.0139x elapsed=0:03:56.34    \nframe=  200 fps=0.8 q=30.5 size=    1024KiB time=00:00:03.30 bitrate=2542.1kbits/s speed=0.0139x elapsed=0:03:56.87    \nframe=  201 fps=0.8 q=35.3 size=    1024KiB time=00:00:03.31 bitrate=2529.3kbits/s speed=0.014x elapsed=0:03:57.37    \nframe=  201 fps=0.8 q=35.3 size=    1024KiB time=00:00:03.31 bitrate=2529.3kbits/s speed=0.0139x elapsed=0:03:57.89    \nframe=  202 fps=0.8 q=39.0 size=    1024KiB time=00:00:03.33 bitrate=2516.7kbits/s speed=0.014x elapsed=0:03:58.48    \nframe=  202 fps=0.8 q=39.0 size=    1024KiB time=00:00:03.33 bitrate=2516.7kbits/s speed=0.0139x elapsed=0:03:59.03    \nframe=  202 fps=0.8 q=39.0 size=    1024KiB time=00:00:03.33 bitrate=2516.7kbits/s speed=0.0139x elapsed=0:03:59.56    \nframe=  203 fps=0.8 q=30.6 size=    1024KiB time=00:00:03.35 bitrate=2504.2kbits/s speed=0.014x elapsed=0:04:00.10    \nframe=  203 fps=0.8 q=30.6 size=    1024KiB time=00:00:03.35 bitrate=2504.2kbits/s speed=0.0139x elapsed=0:04:00.64    \nframe=  203 fps=0.8 q=30.6 size=    1024KiB time=00:00:03.35 bitrate=2504.2kbits/s speed=0.0139x elapsed=0:04:01.19    \nframe=  204 fps=0.8 q=37.5 size=    1024KiB time=00:00:03.36 bitrate=2491.8kbits/s speed=0.0139x elapsed=0:04:01.73    \nframe=  205 fps=0.8 q=38.9 size=    1024KiB time=00:00:03.38 bitrate=2479.5kbits/s speed=0.014x elapsed=0:04:02.24    \nframe=  205 fps=0.8 q=38.9 size=    1024KiB time=00:00:03.38 bitrate=2479.5kbits/s speed=0.0139x elapsed=0:04:02.79    \nframe=  205 fps=0.8 q=38.9 size=    1024KiB time=00:00:03.38 bitrate=2479.5kbits/s speed=0.0139x elapsed=0:04:03.40    \nframe=  205 fps=0.8 q=38.9 size=    1024KiB time=00:00:03.38 bitrate=2479.5kbits/s speed=0.0139x elapsed=0:04:04.07    \nframe=  206 fps=0.8 q=39.0 size=    1024KiB time=00:00:03.40 bitrate=2467.3kbits/s speed=0.0139x elapsed=0:04:04.67    \nframe=  206 fps=0.8 q=39.0 size=    1024KiB time=00:00:03.40 bitrate=2467.3kbits/s speed=0.0139x elapsed=0:04:05.26    \nframe=  206 fps=0.8 q=39.0 size=    1024KiB time=00:00:03.40 bitrate=2467.3kbits/s speed=0.0138x elapsed=0:04:05.83    \nframe=  207 fps=0.8 q=39.0 size=    1024KiB time=00:00:03.41 bitrate=2455.3kbits/s speed=0.0139x elapsed=0:04:06.39    \nframe=  208 fps=0.8 q=31.0 size=    1024KiB time=00:00:03.41 bitrate=2455.3kbits/s speed=0.0138x elapsed=0:04:06.95    \nframe=  209 fps=0.8 q=36.2 size=    1024KiB time=00:00:03.45 bitrate=2431.6kbits/s speed=0.0139x elapsed=0:04:07.58    \nframe=  209 fps=0.8 q=36.2 size=    1024KiB time=00:00:03.45 bitrate=2431.6kbits/s speed=0.0139x elapsed=0:04:08.15    \nframe=  209 fps=0.8 q=36.2 size=    1024KiB time=00:00:03.45 bitrate=2431.6kbits/s speed=0.0139x elapsed=0:04:08.76    \nframe=  209 fps=0.8 q=36.2 size=    1024KiB time=00:00:03.45 bitrate=2431.6kbits/s speed=0.0138x elapsed=0:04:09.28    \nframe=  209 fps=0.8 q=36.2 size=    1024KiB time=00:00:03.45 bitrate=2431.6kbits/s speed=0.0138x elapsed=0:04:09.86    \nframe=  209 fps=0.8 q=36.2 size=    1024KiB time=00:00:03.45 bitrate=2431.6kbits/s speed=0.0138x elapsed=0:04:10.50    \nframe=  209 fps=0.8 q=36.2 size=    1024KiB time=00:00:03.45 bitrate=2431.6kbits/s speed=0.0137x elapsed=0:04:11.10    \nframe=  210 fps=0.8 q=39.0 size=    1024KiB time=00:00:03.46 bitrate=2419.9kbits/s speed=0.0138x elapsed=0:04:11.67    \nframe=  210 fps=0.8 q=39.0 size=    1024KiB time=00:00:03.46 bitrate=2419.9kbits/s speed=0.0137x elapsed=0:04:12.32    \nframe=  211 fps=0.8 q=38.0 size=    1024KiB time=00:00:03.48 bitrate=2408.3kbits/s speed=0.0138x elapsed=0:04:13.01    \nframe=  211 fps=0.8 q=38.0 size=    1024KiB time=00:00:03.48 bitrate=2408.3kbits/s speed=0.0137x elapsed=0:04:13.57    \nframe=  211 fps=0.8 q=38.0 size=    1024KiB time=00:00:03.48 bitrate=2408.3kbits/s speed=0.0137x elapsed=0:04:14.11    \nframe=  212 fps=0.8 q=30.9 size=    1024KiB time=00:00:03.50 bitrate=2396.8kbits/s speed=0.0137x elapsed=0:04:14.65    \nframe=  212 fps=0.8 q=30.9 size=    1024KiB time=00:00:03.50 bitrate=2396.8kbits/s speed=0.0137x elapsed=0:04:15.24    \nframe=  212 fps=0.8 q=30.9 size=    1024KiB time=00:00:03.50 bitrate=2396.8kbits/s speed=0.0137x elapsed=0:04:15.82    \nframe=  212 fps=0.8 q=30.9 size=    1024KiB time=00:00:03.50 bitrate=2396.8kbits/s speed=0.0136x elapsed=0:04:16.43    \nframe=  213 fps=0.8 q=36.2 size=    1024KiB time=00:00:03.51 bitrate=2385.5kbits/s speed=0.0137x elapsed=0:04:16.98    \nframe=  213 fps=0.8 q=36.2 size=    1024KiB time=00:00:03.51 bitrate=2385.5kbits/s speed=0.0137x elapsed=0:04:17.53    \nframe=  214 fps=0.8 q=38.0 size=    1024KiB time=00:00:03.53 bitrate=2374.2kbits/s speed=0.0137x elapsed=0:04:18.06    \nframe=  214 fps=0.8 q=38.0 size=    1024KiB time=00:00:03.53 bitrate=2374.2kbits/s speed=0.0137x elapsed=0:04:18.65    \nframe=  214 fps=0.8 q=38.0 size=    1024KiB time=00:00:03.53 bitrate=2374.2kbits/s speed=0.0136x elapsed=0:04:19.24    \nframe=  214 fps=0.8 q=38.0 size=    1024KiB time=00:00:03.53 bitrate=2374.2kbits/s speed=0.0136x elapsed=0:04:19.85    \nframe=  214 fps=0.8 q=38.0 size=    1024KiB time=00:00:03.53 bitrate=2374.2kbits/s speed=0.0136x elapsed=0:04:20.39    \nframe=  214 fps=0.8 q=38.0 size=    1024KiB time=00:00:03.53 bitrate=2374.2kbits/s speed=0.0135x elapsed=0:04:20.90    \nframe=  214 fps=0.8 q=38.0 size=    1024KiB time=00:00:03.53 bitrate=2374.2kbits/s speed=0.0135x elapsed=0:04:21.60    \nframe=  214 fps=0.8 q=38.0 size=    1024KiB time=00:00:03.53 bitrate=2374.2kbits/s speed=0.0135x elapsed=0:04:22.20    \nframe=  216 fps=0.8 q=30.9 size=    1024KiB time=00:00:03.56 bitrate=2352.0kbits/s speed=0.0136x elapsed=0:04:22.78    \nframe=  217 fps=0.8 q=34.1 size=    1024KiB time=00:00:03.58 bitrate=2341.1kbits/s speed=0.0136x elapsed=0:04:23.35    \nframe=  217 fps=0.8 q=34.1 size=    1024KiB time=00:00:03.58 bitrate=2341.1kbits/s speed=0.0136x elapsed=0:04:23.97    \nframe=  217 fps=0.8 q=34.1 size=    1024KiB time=00:00:03.58 bitrate=2341.1kbits/s speed=0.0135x elapsed=0:04:24.57    \nframe=  217 fps=0.8 q=34.1 size=    1024KiB time=00:00:03.58 bitrate=2341.1kbits/s speed=0.0135x elapsed=0:04:25.13    \nframe=  217 fps=0.8 q=34.1 size=    1024KiB time=00:00:03.58 bitrate=2341.1kbits/s speed=0.0135x elapsed=0:04:25.68    \nframe=  218 fps=0.8 q=37.9 size=    1024KiB time=00:00:03.60 bitrate=2330.3kbits/s speed=0.0135x elapsed=0:04:26.27    \nframe=  218 fps=0.8 q=37.9 size=    1024KiB time=00:00:03.60 bitrate=2330.3kbits/s speed=0.0135x elapsed=0:04:26.87    \nframe=  219 fps=0.8 q=39.0 size=    1024KiB time=00:00:03.61 bitrate=2319.5kbits/s speed=0.0135x elapsed=0:04:27.50    \nframe=  221 fps=0.8 q=35.4 size=    1024KiB time=00:00:03.63 bitrate=2308.9kbits/s speed=0.0136x elapsed=0:04:28.03    \nframe=  221 fps=0.8 q=35.4 size=    1024KiB time=00:00:03.65 bitrate=2298.3kbits/s speed=0.0136x elapsed=0:04:28.59    \nframe=  221 fps=0.8 q=35.4 size=    1024KiB time=00:00:03.65 bitrate=2298.3kbits/s speed=0.0136x elapsed=0:04:29.11    \nframe=  221 fps=0.8 q=35.4 size=    1024KiB time=00:00:03.65 bitrate=2298.3kbits/s speed=0.0135x elapsed=0:04:29.66    \nframe=  221 fps=0.8 q=35.4 size=    1024KiB time=00:00:03.65 bitrate=2298.3kbits/s speed=0.0135x elapsed=0:04:30.20    \nframe=  223 fps=0.8 q=39.0 size=    1024KiB time=00:00:03.68 bitrate=2277.5kbits/s speed=0.0136x elapsed=0:04:30.74    \nframe=  223 fps=0.8 q=39.0 size=    1024KiB time=00:00:03.68 bitrate=2277.5kbits/s speed=0.0136x elapsed=0:04:31.31    \nframe=  224 fps=0.8 q=30.1 size=    1024KiB time=00:00:03.70 bitrate=2267.3kbits/s speed=0.0136x elapsed=0:04:31.92    \nframe=  225 fps=0.8 q=35.1 size=    1024KiB time=00:00:03.71 bitrate=2257.1kbits/s speed=0.0136x elapsed=0:04:32.46    \nframe=  225 fps=0.8 q=35.1 size=    1024KiB time=00:00:03.71 bitrate=2257.1kbits/s speed=0.0136x elapsed=0:04:33.01    \nframe=  225 fps=0.8 q=35.1 size=    1024KiB time=00:00:03.71 bitrate=2257.1kbits/s speed=0.0136x elapsed=0:04:33.59    \nframe=  225 fps=0.8 q=35.1 size=    1024KiB time=00:00:03.71 bitrate=2257.1kbits/s speed=0.0136x elapsed=0:04:34.13    \nframe=  225 fps=0.8 q=35.1 size=    1024KiB time=00:00:03.71 bitrate=2257.1kbits/s speed=0.0135x elapsed=0:04:34.77    \nframe=  226 fps=0.8 q=37.9 size=    1024KiB time=00:00:03.73 bitrate=2247.0kbits/s speed=0.0136x elapsed=0:04:35.30    \nframe=  228 fps=0.8 q=33.8 size=    1024KiB time=00:00:03.76 bitrate=2227.2kbits/s speed=0.0136x elapsed=0:04:35.95    \nframe=  228 fps=0.8 q=33.8 size=    1024KiB time=00:00:03.76 bitrate=2227.2kbits/s speed=0.0136x elapsed=0:04:36.49    \nframe=  228 fps=0.8 q=33.8 size=    1024KiB time=00:00:03.76 bitrate=2227.2kbits/s speed=0.0136x elapsed=0:04:37.06    \nframe=  228 fps=0.8 q=33.8 size=    1024KiB time=00:00:03.76 bitrate=2227.2kbits/s speed=0.0136x elapsed=0:04:37.68    \nframe=  229 fps=0.8 q=38.8 size=    1024KiB time=00:00:03.78 bitrate=2217.3kbits/s speed=0.0136x elapsed=0:04:38.20    \nframe=  229 fps=0.8 q=38.8 size=    1024KiB time=00:00:03.78 bitrate=2217.3kbits/s speed=0.0136x elapsed=0:04:38.77    \nframe=  231 fps=0.8 q=39.9 size=    1024KiB time=00:00:03.81 bitrate=2198.0kbits/s speed=0.0137x elapsed=0:04:39.33    \nframe=  231 fps=0.8 q=39.9 size=    1024KiB time=00:00:03.81 bitrate=2198.0kbits/s speed=0.0136x elapsed=0:04:39.95    \nframe=  231 fps=0.8 q=39.9 size=    1024KiB time=00:00:03.81 bitrate=2198.0kbits/s speed=0.0136x elapsed=0:04:40.50    \nframe=  231 fps=0.8 q=39.9 size=    1024KiB time=00:00:03.81 bitrate=2198.0kbits/s speed=0.0136x elapsed=0:04:41.01    \nframe=  231 fps=0.8 q=39.9 size=    1024KiB time=00:00:03.81 bitrate=2198.0kbits/s speed=0.0136x elapsed=0:04:41.54    \nframe=  231 fps=0.8 q=39.9 size=    1024KiB time=00:00:03.81 bitrate=2198.0kbits/s speed=0.0135x elapsed=0:04:42.16    \nframe=  231 fps=0.8 q=39.9 size=    1024KiB time=00:00:03.81 bitrate=2198.0kbits/s speed=0.0135x elapsed=0:04:42.68    \nframe=  232 fps=0.8 q=30.5 size=    1024KiB time=00:00:03.83 bitrate=2188.4kbits/s speed=0.0135x elapsed=0:04:43.22    \nframe=  232 fps=0.8 q=30.5 size=    1024KiB time=00:00:03.83 bitrate=2188.4kbits/s speed=0.0135x elapsed=0:04:43.84    \nframe=  232 fps=0.8 q=30.5 size=    1024KiB time=00:00:03.83 bitrate=2188.4kbits/s speed=0.0135x elapsed=0:04:44.40    \nframe=  232 fps=0.8 q=30.5 size=    1024KiB time=00:00:03.83 bitrate=2188.4kbits/s speed=0.0135x elapsed=0:04:44.92    \nframe=  232 fps=0.8 q=30.5 size=    1024KiB time=00:00:03.83 bitrate=2188.4kbits/s speed=0.0134x elapsed=0:04:45.52    \nframe=  232 fps=0.8 q=30.5 size=    1024KiB time=00:00:03.83 bitrate=2188.4kbits/s speed=0.0134x elapsed=0:04:46.15    \nframe=  233 fps=0.8 q=35.7 size=    1024KiB time=00:00:03.85 bitrate=2179.0kbits/s speed=0.0134x elapsed=0:04:46.74    \nframe=  234 fps=0.8 q=39.0 size=    1024KiB time=00:00:03.86 bitrate=2169.6kbits/s speed=0.0135x elapsed=0:04:47.33    \nframe=  234 fps=0.8 q=39.0 size=    1024KiB time=00:00:03.86 bitrate=2169.6kbits/s speed=0.0134x elapsed=0:04:47.86    \nframe=  234 fps=0.8 q=39.0 size=    1024KiB time=00:00:03.86 bitrate=2169.6kbits/s speed=0.0134x elapsed=0:04:48.45    \nframe=  234 fps=0.8 q=39.0 size=    1024KiB time=00:00:03.86 bitrate=2169.6kbits/s speed=0.0134x elapsed=0:04:49.04    \nframe=  235 fps=0.8 q=30.6 size=    1024KiB time=00:00:03.88 bitrate=2160.2kbits/s speed=0.0134x elapsed=0:04:49.58    \nframe=  235 fps=0.8 q=30.6 size=    1024KiB time=00:00:03.88 bitrate=2160.2kbits/s speed=0.0134x elapsed=0:04:50.09    \nframe=  235 fps=0.8 q=30.6 size=    1024KiB time=00:00:03.88 bitrate=2160.2kbits/s speed=0.0134x elapsed=0:04:50.74    \nframe=  235 fps=0.8 q=30.6 size=    1024KiB time=00:00:03.88 bitrate=2160.2kbits/s speed=0.0133x elapsed=0:04:51.31    \nframe=  235 fps=0.8 q=30.6 size=    1024KiB time=00:00:03.88 bitrate=2160.2kbits/s speed=0.0133x elapsed=0:04:51.87    \nframe=  235 fps=0.8 q=30.6 size=    1024KiB time=00:00:03.88 bitrate=2160.2kbits/s speed=0.0133x elapsed=0:04:52.42    \nframe=  235 fps=0.8 q=30.6 size=    1024KiB time=00:00:03.88 bitrate=2160.2kbits/s speed=0.0133x elapsed=0:04:52.97    \nframe=  235 fps=0.8 q=30.6 size=    1024KiB time=00:00:03.88 bitrate=2160.2kbits/s speed=0.0132x elapsed=0:04:53.53    \nframe=  236 fps=0.8 q=36.7 size=    1024KiB time=00:00:03.90 bitrate=2151.0kbits/s speed=0.0133x elapsed=0:04:54.08    \nframe=  236 fps=0.8 q=36.7 size=    1024KiB time=00:00:03.90 bitrate=2151.0kbits/s speed=0.0132x elapsed=0:04:54.61    \nframe=  237 fps=0.8 q=38.5 size=    1024KiB time=00:00:03.91 bitrate=2141.9kbits/s speed=0.0133x elapsed=0:04:55.13    \nframe=  238 fps=0.8 q=30.8 size=    1024KiB time=00:00:03.93 bitrate=2132.8kbits/s speed=0.0133x elapsed=0:04:55.65    \nframe=  238 fps=0.8 q=30.8 size=    1024KiB time=00:00:03.93 bitrate=2132.8kbits/s speed=0.0133x elapsed=0:04:56.17    \nframe=  239 fps=0.8 q=36.1 size=    1024KiB time=00:00:03.95 bitrate=2123.8kbits/s speed=0.0133x elapsed=0:04:56.71    \nframe=  240 fps=0.8 q=38.8 size=    1024KiB time=00:00:03.96 bitrate=2114.9kbits/s speed=0.0133x elapsed=0:04:57.23    \nframe=  240 fps=0.8 q=38.8 size=    1024KiB time=00:00:03.96 bitrate=2114.9kbits/s speed=0.0133x elapsed=0:04:57.78    \nframe=  240 fps=0.8 q=38.8 size=    1024KiB time=00:00:03.96 bitrate=2114.9kbits/s speed=0.0133x elapsed=0:04:58.33    \nframe=  240 fps=0.8 q=38.8 size=    1024KiB time=00:00:03.96 bitrate=2114.9kbits/s speed=0.0133x elapsed=0:04:58.88    \nframe=  241 fps=0.8 q=31.1 size=    1024KiB time=00:00:03.98 bitrate=2106.0kbits/s speed=0.0133x elapsed=0:04:59.43    \nframe=  241 fps=0.8 q=31.1 size=    1024KiB time=00:00:03.98 bitrate=2106.0kbits/s speed=0.0133x elapsed=0:04:59.98    \nframe=  241 fps=0.8 q=31.1 size=    1024KiB time=00:00:03.98 bitrate=2106.0kbits/s speed=0.0133x elapsed=0:05:00.50    \nframe=  241 fps=0.8 q=31.1 size=    1024KiB time=00:00:03.98 bitrate=2106.0kbits/s speed=0.0132x elapsed=0:05:01.02    \nframe=  242 fps=0.8 q=36.4 size=    1024KiB time=00:00:04.00 bitrate=2097.2kbits/s speed=0.0133x elapsed=0:05:01.55    \nframe=  243 fps=0.8 q=38.9 size=    1024KiB time=00:00:04.01 bitrate=2088.5kbits/s speed=0.0133x elapsed=0:05:02.09    \nframe=  244 fps=0.8 q=31.2 size=    1024KiB time=00:00:04.03 bitrate=2079.9kbits/s speed=0.0133x elapsed=0:05:02.64    \nframe=  245 fps=0.8 q=37.9 size=    1024KiB time=00:00:04.05 bitrate=2071.3kbits/s speed=0.0134x elapsed=0:05:03.24    \nframe=  246 fps=0.8 q=39.0 size=    1024KiB time=00:00:04.06 bitrate=2062.9kbits/s speed=0.0134x elapsed=0:05:03.79    \nframe=  246 fps=0.8 q=39.0 size=    1024KiB time=00:00:04.06 bitrate=2062.9kbits/s speed=0.0134x elapsed=0:05:04.31    \nframe=  246 fps=0.8 q=39.0 size=    1024KiB time=00:00:04.06 bitrate=2062.9kbits/s speed=0.0133x elapsed=0:05:04.85    \nframe=  248 fps=0.8 q=31.0 size=    1024KiB time=00:00:04.10 bitrate=2046.1kbits/s speed=0.0134x elapsed=0:05:05.37    \nframe=  248 fps=0.8 q=31.0 size=    1024KiB time=00:00:04.10 bitrate=2046.1kbits/s speed=0.0134x elapsed=0:05:05.91    \nframe=  248 fps=0.8 q=31.0 size=    1024KiB time=00:00:04.10 bitrate=2046.1kbits/s speed=0.0134x elapsed=0:05:06.43    \nframe=  248 fps=0.8 q=31.0 size=    1024KiB time=00:00:04.10 bitrate=2046.1kbits/s speed=0.0134x elapsed=0:05:06.99    \nframe=  248 fps=0.8 q=31.0 size=    1024KiB time=00:00:04.10 bitrate=2046.1kbits/s speed=0.0133x elapsed=0:05:07.51    \nframe=  249 fps=0.8 q=38.2 size=    1280KiB time=00:00:04.11 bitrate=2547.2kbits/s speed=0.0134x elapsed=0:05:08.03    \nframe=  250 fps=0.8 q=38.9 size=    1280KiB time=00:00:04.13 bitrate=2537.0kbits/s speed=0.0134x elapsed=0:05:08.56    \nframe=  251 fps=0.8 q=30.2 size=    1280KiB time=00:00:04.15 bitrate=2526.8kbits/s speed=0.0134x elapsed=0:05:09.09    \nframe=  251 fps=0.8 q=30.2 size=    1280KiB time=00:00:04.15 bitrate=2526.8kbits/s speed=0.0134x elapsed=0:05:09.61    \nframe=  252 fps=0.8 q=31.2 size=    1280KiB time=00:00:04.16 bitrate=2516.7kbits/s speed=0.0134x elapsed=0:05:10.13    \nframe=  253 fps=0.8 q=37.9 size=    1280KiB time=00:00:04.18 bitrate=2506.6kbits/s speed=0.0135x elapsed=0:05:10.65    \nframe=  254 fps=0.8 q=40.0 size=    1280KiB time=00:00:04.20 bitrate=2496.7kbits/s speed=0.0135x elapsed=0:05:11.19    \nframe=  255 fps=0.8 q=30.1 size=    1280KiB time=00:00:04.21 bitrate=2486.8kbits/s speed=0.0135x elapsed=0:05:11.71    \nframe=  255 fps=0.8 q=30.1 size=    1280KiB time=00:00:04.21 bitrate=2486.8kbits/s speed=0.0135x elapsed=0:05:12.39    \nframe=  255 fps=0.8 q=30.1 size=    1280KiB time=00:00:04.21 bitrate=2486.8kbits/s speed=0.0135x elapsed=0:05:12.97    \nframe=  257 fps=0.8 q=38.9 size=    1280KiB time=00:00:04.25 bitrate=2467.3kbits/s speed=0.0136x elapsed=0:05:13.53    \nframe=  257 fps=0.8 q=38.9 size=    1280KiB time=00:00:04.25 bitrate=2467.3kbits/s speed=0.0135x elapsed=0:05:14.06    \nframe=  257 fps=0.8 q=38.9 size=    1280KiB time=00:00:04.25 bitrate=2467.3kbits/s speed=0.0135x elapsed=0:05:14.59    \nframe=  257 fps=0.8 q=38.9 size=    1280KiB time=00:00:04.25 bitrate=2467.3kbits/s speed=0.0135x elapsed=0:05:15.12    \nframe=  257 fps=0.8 q=38.9 size=    1280KiB time=00:00:04.25 bitrate=2467.3kbits/s speed=0.0135x elapsed=0:05:15.65    \nframe=  257 fps=0.8 q=38.9 size=    1280KiB time=00:00:04.25 bitrate=2467.3kbits/s speed=0.0134x elapsed=0:05:16.18    \nframe=  258 fps=0.8 q=30.2 size=    1280KiB time=00:00:04.26 bitrate=2457.7kbits/s speed=0.0135x elapsed=0:05:16.72    \nframe=  258 fps=0.8 q=30.2 size=    1280KiB time=00:00:04.26 bitrate=2457.7kbits/s speed=0.0134x elapsed=0:05:17.23    \nframe=  259 fps=0.8 q=37.9 size=    1280KiB time=00:00:04.28 bitrate=2448.1kbits/s speed=0.0135x elapsed=0:05:17.78    \nframe=  259 fps=0.8 q=37.9 size=    1280KiB time=00:00:04.28 bitrate=2448.1kbits/s speed=0.0135x elapsed=0:05:18.31    \nframe=  259 fps=0.8 q=37.9 size=    1280KiB time=00:00:04.28 bitrate=2448.1kbits/s speed=0.0134x elapsed=0:05:18.87    \nframe=  259 fps=0.8 q=37.9 size=    1280KiB time=00:00:04.28 bitrate=2448.1kbits/s speed=0.0134x elapsed=0:05:19.41    \nframe=  260 fps=0.8 q=31.2 size=    1280KiB time=00:00:04.30 bitrate=2438.6kbits/s speed=0.0134x elapsed=0:05:19.92    \nframe=  260 fps=0.8 q=31.2 size=    1280KiB time=00:00:04.30 bitrate=2438.6kbits/s speed=0.0134x elapsed=0:05:20.51    \nframe=  261 fps=0.8 q=36.5 size=    1280KiB time=00:00:04.31 bitrate=2429.2kbits/s speed=0.0134x elapsed=0:05:21.07    \nframe=  262 fps=0.8 q=37.9 size=    1280KiB time=00:00:04.33 bitrate=2419.9kbits/s speed=0.0135x elapsed=0:05:21.61    \nframe=  262 fps=0.8 q=37.9 size=    1280KiB time=00:00:04.33 bitrate=2419.9kbits/s speed=0.0135x elapsed=0:05:22.13    \nframe=  262 fps=0.8 q=37.9 size=    1280KiB time=00:00:04.33 bitrate=2419.9kbits/s speed=0.0134x elapsed=0:05:22.66    \nframe=  262 fps=0.8 q=37.9 size=    1280KiB time=00:00:04.33 bitrate=2419.9kbits/s speed=0.0134x elapsed=0:05:23.17    \nframe=  262 fps=0.8 q=37.9 size=    1280KiB time=00:00:04.33 bitrate=2419.9kbits/s speed=0.0134x elapsed=0:05:23.68    \nframe=  262 fps=0.8 q=37.9 size=    1280KiB time=00:00:04.33 bitrate=2419.9kbits/s speed=0.0134x elapsed=0:05:24.20    \nframe=  262 fps=0.8 q=37.9 size=    1280KiB time=00:00:04.33 bitrate=2419.9kbits/s speed=0.0133x elapsed=0:05:24.77    \nframe=  263 fps=0.8 q=42.0 size=    1280KiB time=00:00:04.35 bitrate=2410.6kbits/s speed=0.0134x elapsed=0:05:25.28    \nframe=  264 fps=0.8 q=42.0 size=    1280KiB time=00:00:04.36 bitrate=2401.4kbits/s speed=0.0134x elapsed=0:05:25.79    \nframe=  264 fps=0.8 q=42.0 size=    1280KiB time=00:00:04.36 bitrate=2401.4kbits/s speed=0.0134x elapsed=0:05:26.35    \nframe=  264 fps=0.8 q=42.0 size=    1280KiB time=00:00:04.36 bitrate=2401.4kbits/s speed=0.0134x elapsed=0:05:26.85    \nframe=  265 fps=0.8 q=34.8 size=    1280KiB time=00:00:04.38 bitrate=2392.3kbits/s speed=0.0134x elapsed=0:05:27.37    \nframe=  266 fps=0.8 q=43.9 size=    1280KiB time=00:00:04.40 bitrate=2383.2kbits/s speed=0.0134x elapsed=0:05:27.90    \nframe=  267 fps=0.8 q=43.0 size=    1280KiB time=00:00:04.41 bitrate=2374.2kbits/s speed=0.0134x elapsed=0:05:28.41    \nframe=  267 fps=0.8 q=43.0 size=    1280KiB time=00:00:04.41 bitrate=2374.2kbits/s speed=0.0134x elapsed=0:05:28.92    \nframe=  269 fps=0.8 q=45.0 size=    1280KiB time=00:00:04.45 bitrate=2356.4kbits/s speed=0.0135x elapsed=0:05:29.44    \nframe=  269 fps=0.8 q=45.0 size=    1280KiB time=00:00:04.45 bitrate=2356.4kbits/s speed=0.0135x elapsed=0:05:30.00    \nframe=  271 fps=0.8 q=44.8 size=    1280KiB time=00:00:04.48 bitrate=2338.9kbits/s speed=0.0136x elapsed=0:05:30.58    \nframe=  271 fps=0.8 q=44.8 size=    1280KiB time=00:00:04.48 bitrate=2338.9kbits/s speed=0.0135x elapsed=0:05:31.11    \nframe=  271 fps=0.8 q=44.8 size=    1280KiB time=00:00:04.48 bitrate=2338.9kbits/s speed=0.0135x elapsed=0:05:31.67    \nframe=  271 fps=0.8 q=44.8 size=    1280KiB time=00:00:04.48 bitrate=2338.9kbits/s speed=0.0135x elapsed=0:05:32.27    \nframe=  271 fps=0.8 q=44.8 size=    1280KiB time=00:00:04.48 bitrate=2338.9kbits/s speed=0.0135x elapsed=0:05:32.80    \nframe=  271 fps=0.8 q=44.8 size=    1280KiB time=00:00:04.48 bitrate=2338.9kbits/s speed=0.0134x elapsed=0:05:33.35    \nframe=  272 fps=0.8 q=45.0 size=    1280KiB time=00:00:04.50 bitrate=2330.2kbits/s speed=0.0135x elapsed=0:05:33.86    \nframe=  272 fps=0.8 q=45.0 size=    1280KiB time=00:00:04.50 bitrate=2330.2kbits/s speed=0.0135x elapsed=0:05:34.42    \nframe=  272 fps=0.8 q=45.0 size=    1280KiB time=00:00:04.50 bitrate=2330.2kbits/s speed=0.0134x elapsed=0:05:34.93    \nframe=  273 fps=0.8 q=45.0 size=    1280KiB time=00:00:04.51 bitrate=2321.6kbits/s speed=0.0135x elapsed=0:05:35.46    \nframe=  273 fps=0.8 q=45.0 size=    1280KiB time=00:00:04.51 bitrate=2321.6kbits/s speed=0.0134x elapsed=0:05:35.98    \nframe=  273 fps=0.8 q=45.0 size=    1280KiB time=00:00:04.51 bitrate=2321.6kbits/s speed=0.0134x elapsed=0:05:36.53    \nframe=  275 fps=0.8 q=44.5 size=    1280KiB time=00:00:04.53 bitrate=2313.1kbits/s speed=0.0134x elapsed=0:05:37.10    \nframe=  275 fps=0.8 q=44.5 size=    1280KiB time=00:00:04.55 bitrate=2304.6kbits/s speed=0.0135x elapsed=0:05:37.63    \nframe=  275 fps=0.8 q=44.5 size=    1280KiB time=00:00:04.55 bitrate=2304.6kbits/s speed=0.0135x elapsed=0:05:38.20    \nframe=  275 fps=0.8 q=44.5 size=    1280KiB time=00:00:04.55 bitrate=2304.6kbits/s speed=0.0134x elapsed=0:05:38.73    \nframe=  277 fps=0.8 q=45.0 size=    1280KiB time=00:00:04.58 bitrate=2287.9kbits/s speed=0.0135x elapsed=0:05:39.27    \nframe=  277 fps=0.8 q=45.0 size=    1280KiB time=00:00:04.58 bitrate=2287.9kbits/s speed=0.0135x elapsed=0:05:39.81    \nframe=  277 fps=0.8 q=45.0 size=    1280KiB time=00:00:04.58 bitrate=2287.9kbits/s speed=0.0135x elapsed=0:05:40.35    \nframe=  277 fps=0.8 q=45.0 size=    1280KiB time=00:00:04.58 bitrate=2287.9kbits/s speed=0.0134x elapsed=0:05:40.88    \nframe=  277 fps=0.8 q=45.0 size=    1280KiB time=00:00:04.58 bitrate=2287.9kbits/s speed=0.0134x elapsed=0:05:41.39    \nframe=  278 fps=0.8 q=44.0 size=    1280KiB time=00:00:04.60 bitrate=2279.6kbits/s speed=0.0135x elapsed=0:05:41.90    \nframe=  278 fps=0.8 q=44.0 size=    1280KiB time=00:00:04.60 bitrate=2279.6kbits/s speed=0.0134x elapsed=0:05:42.42    \nframe=  278 fps=0.8 q=44.0 size=    1280KiB time=00:00:04.60 bitrate=2279.6kbits/s speed=0.0134x elapsed=0:05:42.96    \nframe=  278 fps=0.8 q=44.0 size=    1280KiB time=00:00:04.60 bitrate=2279.6kbits/s speed=0.0134x elapsed=0:05:43.51    \nframe=  278 fps=0.8 q=44.0 size=    1280KiB time=00:00:04.60 bitrate=2279.6kbits/s speed=0.0134x elapsed=0:05:44.07    \nframe=  279 fps=0.8 q=36.5 size=    1280KiB time=00:00:04.61 bitrate=2271.4kbits/s speed=0.0134x elapsed=0:05:44.60    \nframe=  279 fps=0.8 q=36.5 size=    1280KiB time=00:00:04.61 bitrate=2271.4kbits/s speed=0.0134x elapsed=0:05:45.13    \nframe=  281 fps=0.8 q=43.9 size=    1280KiB time=00:00:04.65 bitrate=2255.1kbits/s speed=0.0135x elapsed=0:05:45.65    \nframe=  282 fps=0.8 q=44.0 size=    1280KiB time=00:00:04.66 bitrate=2247.0kbits/s speed=0.0135x elapsed=0:05:46.23    \nframe=  282 fps=0.8 q=44.0 size=    1280KiB time=00:00:04.66 bitrate=2247.0kbits/s speed=0.0135x elapsed=0:05:46.75    \nframe=  283 fps=0.8 q=44.0 size=    1280KiB time=00:00:04.68 bitrate=2239.0kbits/s speed=0.0135x elapsed=0:05:47.27    \nframe=  283 fps=0.8 q=44.0 size=    1280KiB time=00:00:04.68 bitrate=2239.0kbits/s speed=0.0135x elapsed=0:05:47.81    \nframe=  285 fps=0.8 q=43.9 size=    1280KiB time=00:00:04.71 bitrate=2223.2kbits/s speed=0.0135x elapsed=0:05:48.33    \nframe=  285 fps=0.8 q=43.9 size=    1280KiB time=00:00:04.71 bitrate=2223.2kbits/s speed=0.0135x elapsed=0:05:48.85    \nframe=  286 fps=0.8 q=44.0 size=    1280KiB time=00:00:04.73 bitrate=2215.4kbits/s speed=0.0135x elapsed=0:05:49.37    \nframe=  287 fps=0.8 q=44.0 size=    1280KiB time=00:00:04.75 bitrate=2207.6kbits/s speed=0.0136x elapsed=0:05:49.88    \nframe=  287 fps=0.8 q=44.0 size=    1280KiB time=00:00:04.75 bitrate=2207.6kbits/s speed=0.0136x elapsed=0:05:50.39    \nframe=  287 fps=0.8 q=44.0 size=    1280KiB time=00:00:04.75 bitrate=2207.6kbits/s speed=0.0135x elapsed=0:05:50.90    \nframe=  288 fps=0.8 q=32.9 size=    1280KiB time=00:00:04.76 bitrate=2199.9kbits/s speed=0.0136x elapsed=0:05:51.43    \nframe=  289 fps=0.8 q=42.9 size=    1536KiB time=00:00:04.78 bitrate=2630.6kbits/s speed=0.0136x elapsed=0:05:51.97    \nframe=  289 fps=0.8 q=42.9 size=    1536KiB time=00:00:04.78 bitrate=2630.6kbits/s speed=0.0136x elapsed=0:05:52.49    \nframe=  290 fps=0.8 q=40.9 size=    1536KiB time=00:00:04.80 bitrate=2621.5kbits/s speed=0.0136x elapsed=0:05:53.04    \nframe=  290 fps=0.8 q=40.9 size=    1536KiB time=00:00:04.80 bitrate=2621.5kbits/s speed=0.0136x elapsed=0:05:53.61    \nframe=  290 fps=0.8 q=40.9 size=    1536KiB time=00:00:04.80 bitrate=2621.5kbits/s speed=0.0136x elapsed=0:05:54.14    \nframe=  291 fps=0.8 q=41.0 size=    1536KiB time=00:00:04.81 bitrate=2612.4kbits/s speed=0.0136x elapsed=0:05:54.65    \nframe=  291 fps=0.8 q=41.0 size=    1536KiB time=00:00:04.81 bitrate=2612.4kbits/s speed=0.0136x elapsed=0:05:55.17    \nframe=  292 fps=0.8 q=33.6 size=    1536KiB time=00:00:04.83 bitrate=2603.4kbits/s speed=0.0136x elapsed=0:05:55.73    \nframe=  293 fps=0.8 q=38.7 size=    1536KiB time=00:00:04.85 bitrate=2594.5kbits/s speed=0.0136x elapsed=0:05:56.26    \nframe=  295 fps=0.8 q=39.9 size=    1536KiB time=00:00:04.86 bitrate=2585.6kbits/s speed=0.0136x elapsed=0:05:56.78    \nframe=  296 fps=0.8 q=40.0 size=    1536KiB time=00:00:04.90 bitrate=2568.0kbits/s speed=0.0137x elapsed=0:05:57.31    \nframe=  296 fps=0.8 q=40.0 size=    1536KiB time=00:00:04.90 bitrate=2568.0kbits/s speed=0.0137x elapsed=0:05:57.84    \nframe=  296 fps=0.8 q=40.0 size=    1536KiB time=00:00:04.90 bitrate=2568.0kbits/s speed=0.0137x elapsed=0:05:58.37    \nframe=  297 fps=0.8 q=35.5 size=    1536KiB time=00:00:04.91 bitrate=2559.3kbits/s speed=0.0137x elapsed=0:05:58.89    \nframe=  298 fps=0.8 q=36.0 size=    1536KiB time=00:00:04.93 bitrate=2550.7kbits/s speed=0.0137x elapsed=0:05:59.41    \n[mp4 @ 000002b55743a980] Starting second pass: moving the moov atom to the beginning of the file\n[out#0/mp4 @ 000002b557d4f040] video:1578KiB audio:0KiB subtitle:0KiB other streams:0KiB global headers:2KiB muxing overhead: 0.436841%\nframe=  300 fps=0.8 q=38.9 Lsize=    1585KiB time=00:00:04.96 bitrate=2613.8kbits/s speed=0.0138x elapsed=0:05:59.71    \nx265 [info]: frame I:      2, Avg QP:33.31  kb/s: 14954.88\nx265 [info]: frame P:     73, Avg QP:30.81  kb/s: 9068.03 \nx265 [info]: frame B:    225, Avg QP:36.71  kb/s: 369.24  \nx265 [info]: Weighted P-Frames: Y:0.0% UV:0.0%\n\nencoded 300 frames in 359.03s (0.84 fps), 2583.19 kb/s, Avg QP:35.25\n",
  "seconds": 360.2190582752228,
  "probe_out": {}
}